<svg xmlns="http://www.w3.org/2000/svg" xmlns:xlink="http://www.w3.org/1999/xlink" fill="none" version="1.1" width="22.785369873046875" height="22.785369873046875" viewBox="0 0 22.785369873046875 22.785369873046875"><g><path d="M21.5862,10.1935C21.5862,10.1935,12.5919,10.1935,12.5919,10.1935C12.5919,10.1935,12.5919,1.19923,12.5919,1.19923C12.5919,0.53965,12.0523,0,11.3927,0C10.7331,0,10.1935,0.53965,10.1935,1.19923C10.1935,1.19923,10.1935,10.1935,10.1935,10.1935C10.1935,10.1935,1.19923,10.1935,1.19923,10.1935C0.53965,10.1935,0,10.7331,0,11.3927C0,12.0523,0.53965,12.5919,1.19923,12.5919C1.19923,12.5919,10.1935,12.5919,10.1935,12.5919C10.1935,12.5919,10.1935,21.5861,10.1935,21.5861C10.1935,22.2457,10.7331,22.7854,11.3927,22.7854C12.0523,22.7854,12.5919,22.2457,12.5919,21.5861C12.5919,21.5861,12.5919,12.5919,12.5919,12.5919C12.5919,12.5919,21.5861,12.5919,21.5861,12.5919C22.2457,12.5919,22.7854,12.0523,22.7854,11.3927C22.7854,10.7331,22.2457,10.1935,21.5861,10.1935C21.5861,10.1935,21.5862,10.1935,21.5862,10.1935Z" fill="#FFFFFF" fill-opacity="1"/></g></svg>