<?xml version="1.0" standalone="no"?><!DOCTYPE svg PUBLIC "-//W3C//DTD SVG 1.1//EN" "http://www.w3.org/Graphics/SVG/1.1/DTD/svg11.dtd"><svg t="1709567051585" class="icon" viewBox="0 0 1024 1024" version="1.1" xmlns="http://www.w3.org/2000/svg" p-id="23771" width="24" height="24" xmlns:xlink="http://www.w3.org/1999/xlink"><path d="M413.01004442 315.15011183l-0.37667407-3.61607154c-10.82938088-80.40108838 56.59528467-141.94963721 142.72181909-107.82296365 35.4073657 14.03111087 72.86760622 35.44503319 97.6527622 56.68945338A23.54213133 23.54213133 0 0 1 622.36551343 296.16573683c-20.52873877-17.59068117-53.4877234-36.46205372-84.37500026-48.68512842-49.53264528-19.62472069-83.35797972 9.77469287-79.06389501 54.56124438l0.37667406 3.22056373c5.23577028 39.23060841-10.64104345 74.31780128-44.91838694 88.57491626-44.88072023 18.64536841-93.77301905 4.25641722-115.20577589-42.75251125-6.45996119-14.16294628-27.02636744-25.85867775-48.15778442-25.02999464-26.08468188 1.01701976-49.55147902 19.62472069-65.01395119 59.98535131-52.43303539 136.73270067 11.78989941 287.06333691 147.39257865 340.77706522 52.8285432 20.94308032 114.01925245 23.59863256 171.01004416 9.04017846a23.54213133 23.54213133 0 0 1 11.67689773 45.61523462c-66.33231005 16.95033472-137.63671875 13.84277344-200.01395144-10.88588209-159.78515625-63.28125-235.6096538-240.75125536-174.0234375-401.4027622C163.953125 312.02371681 203.31556882 280.79743337 249.19447507 279.00823095c38.15708742-1.48786253 75.29715431 18.79603757 91.07979934 49.00530127l1.73270118 3.52190283c10.07603274 22.09193627 31.3392859 28.34472631 54.31640573 18.81487209 11.86523438-4.93443117 18.11802441-17.45884498 16.6866631-35.21902905zM754.82296313 131.16364405a23.54213133 23.54213133 0 0 1 40.45479934 24.0506416l-4.08691433 7.19447558-2.52371682 4.59542382c-5.46177441 10.00069777-11.56389528 21.77176343-18.13685814 35.20019531a1330.99679152 1330.99679152 0 0 0-55.46526168 131.02608839c-2.88155714 7.92899-5.70661306 15.93331495-8.47516775 24.01297411-21.50809181 62.7162385-33.768834 129.33105469-39.02343725 193.23381741a23.54213133 23.54213133 0 0 1-46.93359425-3.86091019c5.55594312-67.49999975 18.49469847-137.82505618 41.41531862-204.64704197 2.8627234-8.36216528 5.78194725-16.63016187 8.77650608-24.82282348a1377.87388378 1377.87388378 0 0 1 57.44280152-135.67801343l6.70479906-13.48493311c3.27706495-6.45996119 6.42229372-12.48674632 9.41685254-18.08035691l7.98549121-14.5207874c1.01701976-1.78920164 1.82686912-3.20172998 2.44838185-4.21874973zM881.47963184 151.44754494a23.54213133 23.54213133 0 0 1 21.73409595 25.23716503l-1.01702053 10.75404591a741.48297972 741.48297972 0 0 1-0.7345144 6.47879415l-1.77036789 14.23828125c-1.31835963 9.94419654-2.90039088 20.75474367-4.802595 32.35630566a1395.80357153 1395.80357153 0 0 1-36.72572532 161.4990237c-12.01590431 41.52832031-28.60839869 83.54631715-48.60979346 125.24414036a1025.26925245 1025.26925245 0 0 1-47.23493336 87.20005618l-6.59179661 10.73521216c-2.10937525 3.39006663-4.18108225 6.6294641-6.13978836 9.69935789l-8.24916283 12.46791336a23.54213133 23.54213133 0 1 1-39.4377788-25.76450905l5.38643943-8.04199244 5.57477687-8.66350439a978.5239956 978.5239956 0 0 0 54.24107153-98.02943627c18.94670752-39.47544628 34.59751711-79.1015625 45.82240503-117.9366631a1348.9264785 1348.9264785 0 0 0 35.50153441-155.99958103c1.80803539-11.11188623 3.33356618-21.45159059 4.57659084-30.88727686l1.69503371-13.5226006c0.88518434-7.60881715 1.35602712-12.80691994 1.56319751-15.33063597a23.54213133 23.54213133 0 0 1 22.80761691-21.79059716l2.41071437 0.05650122z" fill="#3D7EFE" p-id="23772"></path><path d="M576.07226563 612.11997779c-4.78376123 4.16224852-10.69754468 11.30022289-16.19698657 21.65876099-13.54143434 25.50083742-17.9485215 58.77999413-8.83300808 99.4419646 7.40164598 33.01548586 2.97572507 65.46595944-9.04017846 95.20438037a164.62541872 164.62541872 0 0 1-8.60700316 18.13685814l-3.33356618 5.61244434c-11.84640063 17.36467627 3.25823122 40.36063062 23.89997243 36.38671875 12.18540722-2.3353794 32.01729907-8.75767311 56.91545751-21.20675193 40.69963721-20.34040211 81.21093775-50.56849877 118.84068119-92.51116141 3.25823122-3.63490528 6.49762867-7.3639785 9.69935788-11.1683867 41.07631127-48.85463133 30.00209252-119.12318653-19.66238818-157.26144021-42.18749975-32.43164063-101.79617775-30.88727686-140.89494995 3.1640625l-2.78738843 2.54255056z m114.99860472 31.62179126c29.15457568 22.41210912 35.42619945 62.15122779 12.31724342 89.61076976-2.88155714 3.42773412-5.78194725 6.78013403-8.72000562 10.05719898l-6.74246656 7.34514477c-29.32407936 31.16978222-60.17368873 54.37290774-90.98563062 70.81473217l-3.4654016 1.77036868 0.92285182-3.14522876c7.77832006-28.57073122 9.86886157-58.89299658 4.06807981-90.06277958l-1.48786253-7.21330855c-6.66713159-29.71958716-3.7667407-51.51018434 4.48242212-67.06682522 2.26004443-4.23758348 4.21874975-6.81780153 5.12276783-7.81598755l1.18652344-1.11118846c22.03543506-21.01841529 58.04547972-22.60044653 83.30147849-3.20172998z" fill="#3D7EFE" p-id="23773"></path><path d="M628.80664088 690.86369997c14.16294628-5.65011183 29.55008349-7.34514476 45.0313894-2.31654566l4.85909621 1.80803538 3.48423534 1.50669628c2.41071436 1.14885595 4.61425756 2.44838184 10.01953073 5.78194803l2.52371681 1.54436376c13.03292407 8.00432497 15.63197507 8.15499412 27.9492185-2.54255054a23.54213133 23.54213133 0 1 1 30.84960938 35.59570312c-28.96623903 25.08649586-52.73437525 24.86049097-80.15624975 9.04017846l-10.528041-6.34695874a20.18973218 20.18973218 0 0 0-1.80803616-0.9416848l-0.69684691-0.28250612c-4.01157936-1.600865-8.94600975-1.16768969-14.06877756 0.88518433l-2.95689212 1.35602712a23.54213133 23.54213133 0 1 1-25.80217653-39.38127834c2.58021727-1.6950337 6.40345997-3.7667407 11.30022366-5.70661228zM703.33161253 501.71679687l74.84514528 23.07128932-13.86160718 45.01255567-74.86397901-23.09012308zM304.45256715 557.63406837a38.91043556 38.91043556 0 1 0 0 77.8397041 38.91043556 38.91043556 0 0 0 0-77.8397041z m0 30.75544067a8.17382787 8.17382787 0 1 1 0 16.32882277 8.17382787 8.17382787 0 0 1 0-16.32882277zM427.43666309 619.1449497a38.91043556 38.91043556 0 1 0 0 77.82087036 38.91043556 38.91043556 0 0 0 0-77.82087035z m0 30.73660692a8.17382787 8.17382787 0 1 1 0 16.34765651 8.17382787 8.17382787 0 0 1 0-16.34765651zM258.3099885 434.64997243a38.91043556 38.91043556 0 1 0 1e-8 77.8397041 38.91043556 38.91043556 0 0 0 0-77.8397041z m1e-8 30.75544066a8.17382787 8.17382787 0 1 1 0 16.32882278 8.17382787 8.17382787 0 0 1 0-16.32882278zM550.43959278 311.64704275a38.91043556 38.91043556 0 1 0 0 77.83970409 38.91043556 38.91043556 0 0 0 0-77.83970409z m0 30.75544066a8.15499412 8.15499412 0 1 1 0 16.32882277 8.15499412 8.15499412 0 0 1 0-16.32882277z" fill="#3D7EFE" p-id="23774"></path></svg>