<?xml version="1.0" standalone="no"?><!DOCTYPE svg PUBLIC "-//W3C//DTD SVG 1.1//EN" "http://www.w3.org/Graphics/SVG/1.1/DTD/svg11.dtd"><svg t="1709567880129" class="icon" viewBox="0 0 1024 1024" version="1.1" xmlns="http://www.w3.org/2000/svg" p-id="56923" width="24" height="24" xmlns:xlink="http://www.w3.org/1999/xlink"><path d="M530.3552 172.1856l-18.9184-13.2608-18.5344 13.824c-42.3936 31.5392-86.7328 55.68-133.0176 72.5248-45.696 16.6144-88.6016 24.3968-128.7936 23.552l-32.6912-0.7168V544c0 173.184 140.416 313.6 313.6 313.6s313.6-140.416 313.6-313.6V269.2096l-31.5904-0.4096a388.5056 388.5056 0 0 1-128.7936-23.1424c-41.4208-15.0528-86.4-39.5008-134.8608-73.472z m-17.92 65.2288l5.3504 3.5584c43.8784 28.7232 85.7088 50.3552 125.5424 64.8448l11.9552 4.1472c32.0256 10.624 65.1008 17.536 99.1744 20.7616l7.1424 0.5632v212.7104c0 137.856-111.744 249.6-249.6 249.6l-6.9888-0.1024c-134.6048-3.6864-242.6112-113.9712-242.6112-249.4976v-212.0704l1.2288-0.0512c38.0928-2.816 77.4656-11.6736 118.1184-26.4704a574.72 574.72 0 0 0 125.4912-64.4096l5.1968-3.584z" fill="#FB553C" p-id="56924"></path><path d="M371.2 480m32 0l217.6 0q32 0 32 32l0 0q0 32-32 32l-217.6 0q-32 0-32-32l0 0q0-32 32-32Z" fill="#FB553C" p-id="56925"></path><path d="M544 371.2m0 32l0 217.6q0 32-32 32l0 0q-32 0-32-32l0-217.6q0-32 32-32l0 0q32 0 32 32Z" fill="#FB553C" p-id="56926"></path></svg>