<?xml version="1.0" standalone="no"?><!DOCTYPE svg PUBLIC "-//W3C//DTD SVG 1.1//EN" "http://www.w3.org/Graphics/SVG/1.1/DTD/svg11.dtd"><svg t="1709568100982" class="icon" viewBox="0 0 1024 1024" version="1.1" xmlns="http://www.w3.org/2000/svg" p-id="1753" width="24" height="24" xmlns:xlink="http://www.w3.org/1999/xlink"><path d="M774.4 409.5c-13.8 21.5-37.9 35.8-65.4 35.8-42.9 0-77.6-34.8-77.6-77.6 0-10.7 2.2-20.9 6.1-30.2l104.8 5.5 32.1 66.5z" fill="#F388AF" opacity=".8" p-id="1754"></path><path d="M564.3 351.2l-28.6-31 52.1-47.9c0.8-0.7 1.6-1.3 2.4-1.9 3.7-2.5 6.9-5.5 9.6-8.8 6.4-8 9.8-17.7 9.6-27.9-0.3-23.9-19.9-43.2-43.7-43.2h-0.6c-11.7 0.1-22.6 4.8-30.8 13.2-8.2 8.4-12.6 19.4-12.4 31.1v0.3c0 11.5-9.3 20.9-20.8 21.1-11.7 0.3-21.2-9.2-21.4-20.8-0.3-23.9-19.9-43.2-43.7-43.2h-0.6c-11.7 0.1-22.6 4.8-30.8 13.2-8.2 8.4-12.6 19.4-12.4 31.1 0.1 10.3 3.7 19.9 10.3 27.7 2.8 3.3 6.1 6.2 9.9 8.6 0.9 0.6 1.7 1.2 2.5 1.9l48.9 42.8-27.5 31.5-47.9-41.8c-6.7-4.5-12.7-9.8-17.9-15.9-12.8-15.2-20.1-34.5-20.3-54.4-0.3-22.9 8.4-44.6 24.4-61.1 16-16.4 37.5-25.7 60.4-25.9 25.8-0.6 49.2 10.8 65.2 28.7 1.3-1.5 2.6-3 4.1-4.5 16-16.4 37.5-25.7 60.4-25.9h1.1c46.9 0 85.3 37.8 85.9 84.8 0.3 19.9-6.5 39.4-18.9 54.9-5 6.2-10.9 11.7-17.5 16.4l-51 46.9z" fill="#F388AF" p-id="1755"></path><path d="M864 860.4H137.9c-9.7 0-18.2-6.7-20.5-16.2l-23-95.8c-1.5-6.3-0.1-12.9 3.9-18s10.1-8 16.6-8H887c6.5 0 12.6 3 16.6 8 4 5.1 5.5 11.7 3.9 18l-23 95.8c-2.3 9.6-10.7 16.2-20.5 16.2z m-709.4-42.1h692.8l12.9-53.6H141.7l12.9 53.6zM771.6 522.6c-11.6 0-21.1-9.4-21.1-21.1V397.1c0-21.8-15.7-40.3-34.4-40.3H285.8c-18.6 0-34.4 18.5-34.4 40.3v104.5c0 11.6-9.4 21.1-21.1 21.1-11.6 0-21.1-9.4-21.1-21.1V397.1c0-45.5 34.3-82.5 76.6-82.5h430.4c42.2 0 76.6 37 76.6 82.5v104.5c-0.1 11.6-9.5 21-21.2 21z" fill="#ED4D9A" p-id="1756"></path><path d="M838.5 754.5c-11.6 0-21.1-9.4-21.1-21.1V578.1c0-30.6-21.6-55.5-48.1-55.5H232.6c-26.5 0-48.1 24.9-48.1 55.5v155.3c0 11.6-9.4 21.1-21.1 21.1s-21.1-9.4-21.1-21.1V578.1c0-53.8 40.5-97.6 90.3-97.6h536.8c49.8 0 90.3 43.8 90.3 97.6v155.3c-0.1 11.7-9.5 21.1-21.2 21.1z" fill="#ED4D9A" p-id="1757"></path><path d="M253.8 678.8c-57.2 0-103.7-41-103.7-91.5 0-11.6 9.4-21.1 21.1-21.1s21.1 9.4 21.1 21.1c0 27.2 27.6 49.3 61.5 49.3s61.5-22.1 61.5-49.3c0-11.6 9.4-21.1 21.1-21.1 11.6 0 21.1 9.4 21.1 21.1 0 50.5-46.6 91.5-103.7 91.5z" fill="#ED4D9A" p-id="1758"></path><path d="M419 678.8c-57.2 0-103.7-41-103.7-91.5 0-11.6 9.4-21.1 21.1-21.1 11.6 0 21.1 9.4 21.1 21.1 0 27.2 27.6 49.3 61.5 49.3s61.5-22.1 61.5-49.3c0-11.6 9.4-21.1 21.1-21.1s21.1 9.4 21.1 21.1c0 50.5-46.5 91.5-103.7 91.5z" fill="#ED4D9A" p-id="1759"></path><path d="M582.9 678.8c-57.2 0-103.7-41-103.7-91.5 0-11.6 9.4-21.1 21.1-21.1s21.1 9.4 21.1 21.1c0 27.2 27.6 49.3 61.5 49.3s61.5-22.1 61.5-49.3c0-11.6 9.4-21.1 21.1-21.1 11.6 0 21.1 9.4 21.1 21.1 0.1 50.5-46.5 91.5-103.7 91.5z" fill="#ED4D9A" p-id="1760"></path><path d="M748.2 678.8c-57.2 0-103.7-41-103.7-91.5 0-11.6 9.4-21.1 21.1-21.1 11.6 0 21.1 9.4 21.1 21.1 0 27.2 27.6 49.3 61.5 49.3s61.5-22.1 61.5-49.3c0-11.6 9.4-21.1 21.1-21.1 11.6 0 21.1 9.4 21.1 21.1 0 50.5-46.5 91.5-103.7 91.5z" fill="#ED4D9A" p-id="1761"></path></svg>