<?xml version="1.0" standalone="no"?><!DOCTYPE svg PUBLIC "-//W3C//DTD SVG 1.1//EN" "http://www.w3.org/Graphics/SVG/1.1/DTD/svg11.dtd"><svg t="1709568523677" class="icon" viewBox="0 0 1024 1024" version="1.1" xmlns="http://www.w3.org/2000/svg" p-id="8998" width="24" height="24" xmlns:xlink="http://www.w3.org/1999/xlink"><path d="M214.343422 460.600539c29.25422 0 56.974128 5.728099 82.955149 16.979722 25.981021 11.353911 48.279692 26.287883 66.896014 44.904205C384.140645 541.203077 399.483768 563.501748 410.121666 589.482769 420.759564 615.46379 426.078514 643.797423 426.078514 674.38138c0 29.25422-5.318949 56.974128-15.956847 82.852862C399.483768 783.317551 384.140645 805.616222 364.194586 824.232544 345.475976 844.178604 323.177305 859.521726 297.196284 870.159624 271.317551 880.89981 243.597643 886.116472 214.343422 886.116472c-30.583958 0-58.917591-5.318949-84.898612-15.956847C103.46379 859.521726 81.165118 844.178604 62.446509 824.232544c-18.616322-18.616322-33.652582-40.914994-44.904205-66.896014S0.562581 703.737888 0.562581 674.38138c0-30.583958 5.625812-58.917591 16.979722-84.898612C28.896214 563.501748 43.830187 541.203077 62.446509 522.586755c18.616322-18.616322 40.914994-33.652582 66.896014-44.904205C155.425832 466.328638 183.657177 460.600539 214.343422 460.600539zM214.343422 822.186795c19.946059 0 38.971531-3.989212 56.974128-11.967636 18.002597-7.978424 33.652582-18.616322 46.949955-32.015982 13.297373-13.297373 23.935271-28.947358 32.015982-46.949955 7.978424-18.002597 11.967636-36.925782 11.967636-56.974128 0-21.275797-3.989212-40.914994-11.967636-58.917591C342.202777 597.461193 331.564879 581.811208 318.165218 568.513835c-13.297373-13.297373-28.947358-23.935271-46.949955-32.015982C253.314954 528.519429 234.289482 524.530217 214.343422 524.530217c-21.275797 0-40.914994 3.989212-58.917591 11.967636C137.423234 544.578564 121.773249 555.216462 108.475877 568.513835 95.076216 581.811208 84.438318 597.461193 76.459894 615.46379 68.48147 633.466387 64.492259 653.105584 64.492259 674.38138c0 19.946059 3.989212 38.971531 11.967636 56.974128C84.438318 749.358106 95.076216 765.008091 108.475877 778.305464c13.297373 13.297373 28.947358 23.935271 46.949955 32.015982C173.326141 818.197583 193.067626 822.186795 214.343422 822.186795zM557.92708 268.811507 460.037958 366.700629 553.937868 438.60873l0 277.710518L478.040555 716.319249l0-213.780841-145.861952-83.875737C326.859654 414.673459 322.256718 410.377385 318.165218 405.672161 314.176006 401.069224 310.902807 396.057137 308.243332 390.738188c-2.659475-5.318949-5.012087-11.251623-6.955549-18.002597C299.242034 366.086904 298.219159 360.051943 298.219159 354.732994c0-10.637898 2.04575-20.252922 6.034962-28.947358C308.243332 317.0912 313.562281 309.521926 320.210968 302.770952l157.829587-157.829587c6.648686-6.648686 14.320248-11.967636 23.014684-15.956847 8.694436-3.989212 18.30946-6.034962 28.947358-6.034962 6.648686 0 13.297373 1.022875 19.946059 2.966337 6.648686 2.04575 12.683648 4.296074 18.002597 6.955549 5.318949 2.659475 10.024173 6.341824 14.013385 10.944761 3.989212 4.705224 7.978424 9.717311 11.967636 14.933973L673.818799 298.78174 809.656578 298.78174l0 75.897313L631.880931 374.679053 557.92708 268.811507zM809.656578 460.600539c30.583958 0 58.917591 5.728099 84.898612 16.979722 25.981021 11.353911 48.279692 26.287883 66.896014 44.904205 18.616322 18.71861 33.652582 40.914994 44.904205 66.896014C1017.811607 615.46379 1023.437419 643.797423 1023.437419 674.38138c0 29.25422-5.625812 56.974128-16.979722 82.852862C995.103786 783.317551 980.169813 805.616222 961.451204 824.232544c-18.616322 19.946059-40.914994 35.289182-66.896014 45.92708C868.574168 880.89981 840.342823 886.116472 809.656578 886.116472c-29.25422 0-56.974128-5.318949-82.955149-15.956847C700.822695 859.521726 678.524024 844.178604 659.805414 824.232544 639.859355 805.616222 624.516232 783.317551 613.878334 757.33653S597.921486 703.737888 597.921486 674.38138c0-30.583958 5.318949-58.917591 15.956847-84.898612C624.516232 563.501748 639.859355 541.203077 659.805414 522.586755c18.616322-18.616322 40.914994-33.652582 66.896014-44.904205C752.682449 466.328638 780.402357 460.600539 809.656578 460.600539zM681.797223 152.919788c-10.637898 0-20.662072-2.04575-29.970233-6.034962C642.518829 142.997902 634.540406 137.678953 627.891719 131.030267 621.243033 124.279293 615.924084 116.300869 611.934872 106.992708 607.94566 97.684547 605.89991 87.762661 605.89991 77.022475c0-10.637898 1.943462-20.662072 6.034962-29.970233C615.924084 37.846369 621.243033 29.765658 627.891719 23.116971 634.540406 16.468285 642.518829 11.149336 651.82699 7.160124 661.135151 3.170912 671.159325 1.125162 681.797223 1.125162s20.662072 2.04575 29.970233 6.034962C721.075617 11.149336 729.770053 16.468285 737.748477 23.116971 744.397163 29.765658 749.716112 37.846369 753.705324 47.052243 757.694536 56.360404 759.740286 66.384577 759.740286 77.022475c0 10.637898-2.04575 20.662072-6.034962 29.970233C749.716112 116.300869 744.397163 124.279293 737.748477 131.030267 729.770053 137.678953 721.075617 142.997902 711.767456 146.987114 702.459295 150.976326 692.435121 152.919788 681.797223 152.919788zM809.656578 822.186795c21.275797 0 40.914994-3.989212 58.917591-11.967636 18.002597-7.978424 33.652582-18.616322 46.949955-32.015982 13.297373-13.297373 23.935271-28.947358 32.015982-46.949955 7.978424-18.002597 11.967636-36.925782 11.967636-56.974128 0-21.275797-3.989212-40.914994-11.967636-58.917591C939.561682 597.461193 928.821496 581.811208 915.524123 568.513835c-13.297373-13.297373-28.947358-23.935271-46.949955-32.015982C850.673859 528.519429 830.932374 524.530217 809.656578 524.530217c-19.946059 0-38.971531 3.989212-56.974128 11.967636C734.78214 544.578564 719.132155 555.216462 705.732494 568.513835 692.435121 581.811208 681.797223 597.461193 673.818799 615.46379 665.840376 633.466387 661.851164 653.105584 661.851164 674.38138c0 19.946059 3.989212 38.971531 11.967636 56.974128C681.797223 749.358106 692.435121 765.008091 705.732494 778.305464c13.297373 13.297373 28.947358 23.935271 46.949955 32.015982C770.685046 818.197583 789.710518 822.186795 809.656578 822.186795z" p-id="8999" fill="#1296db"></path></svg>