<?xml version="1.0" standalone="no"?><!DOCTYPE svg PUBLIC "-//W3C//DTD SVG 1.1//EN" "http://www.w3.org/Graphics/SVG/1.1/DTD/svg11.dtd"><svg t="1700825312878" class="icon" viewBox="0 0 1024 1024" version="1.1" xmlns="http://www.w3.org/2000/svg" p-id="4258" width="24" height="24" xmlns:xlink="http://www.w3.org/1999/xlink"><path d="M978.602667 319.488v544.768c0 50.9952-46.967467 92.16-105.198934 92.16H149.572267C91.477333 956.416 44.373333 915.319467 44.373333 864.256V319.488h934.229334z m-232.789334 143.7696a40.96 40.96 0 0 0-54.340266 5.7344l-225.0752 258.525867-112.503467-129.024c-13.653333-15.633067-39.3216-20.48-54.818133-6.826667-16.5888 14.472533-13.175467 41.233067-0.136534 56.797867l143.1552 163.498666c13.653333 15.428267 35.498667 15.428267 49.083734 0l256.136533-294.912c11.127467-11.0592 15.9744-41.233067-1.501867-53.794133zM235.383467 86.016v68.949333c0 26.146133 24.234667 47.5136 54.408533 47.5136 30.1056 0 54.340267-21.367467 54.340267-47.5136V86.016h334.711466v68.949333c0 26.146133 24.234667 47.5136 54.408534 47.5136 30.1056 0 54.340267-21.367467 54.340266-47.5136V86.016h86.357334c58.231467 0 105.198933 41.233067 105.198933 92.16h0.477867v94.208H44.782933V178.176c0-50.926933 47.035733-92.16 105.2672-92.16h85.333334z m497.322666-85.333333c14.5408 0 26.146133 8.738133 26.146134 19.8656v133.9392c0 11.127467-12.014933 19.933867-26.146134 19.933866-14.5408 0-25.736533-8.8064-25.736533-20.002133V20.616533c0-11.127467 11.605333-19.8656 25.736533-19.8656z m-441.412266 0c14.062933 0 25.736533 8.738133 25.736533 19.8656v133.9392c0 11.127467-11.605333 19.933867-25.736533 19.933866-14.5408 0-26.2144-8.8064-26.2144-20.002133V20.616533c0-11.127467 12.0832-19.8656 26.2144-19.8656z" fill="#5c33be" p-id="4259"></path></svg>