<?xml version="1.0" standalone="no"?><!DOCTYPE svg PUBLIC "-//W3C//DTD SVG 1.1//EN" "http://www.w3.org/Graphics/SVG/1.1/DTD/svg11.dtd"><svg t="1709567640044" class="icon" viewBox="0 0 1024 1024" version="1.1" xmlns="http://www.w3.org/2000/svg" p-id="48667" width="24" height="24" xmlns:xlink="http://www.w3.org/1999/xlink"><path d="M884.6 405.3H873l-40.4 11.2-40.4-95.5c-11.6-28.1-46.2-50.5-80.9-50.5h-28.9v-78.6c0-16.8-11.6-28.1-28.9-28.1h-283c-17.3 0-28.9 11.2-28.9 28.1v78.6h-28.9c-34.7 0-69.3 22.5-80.9 50.5l-40.4 95.5-40.4-11.2h-11.6c-17.3 0-34.7 16.8-34.7 33.7v22.5c0 22.5 17.3 44.9 46.2 44.9l-5.8 11.2c-11.6 28.1-23.1 73-23.1 101.1v196.6c0 22.5 17.3 44.9 46.2 44.9h52c23.1 0 46.2-16.8 46.2-44.9v-50.5h479.4v50.5c0 22.5 17.3 44.9 46.2 44.9h52c23.1 0 46.2-16.8 46.2-44.9V618.7c0-28.1-11.6-73-23.1-101.1l5.8-11.2h5.8c23.1 0 40.4-16.8 40.4-44.9V439c0.1-16.9-17.2-33.7-34.5-33.7z m-260-207.8h23.1v67.4h-23.1v-67.4z m-92.4 0h23.1l14.3 21.5 14-21.5h23.1l-22.5 33.7 28.9 33.7H590l-18.1-21.4-16.5 21.4h-24.1l25.7-32.1-24.8-35.3z m-34.6 0l26.7 67.4h-17.8l-5.8-16.8h-28.9l-5.8 16.8h-20.4l28.9-67.4h23.1z m-115.6 0h75.1v11.2H434v56.2h-28.9v-56.2H382v-11.2zM231.8 483.9l63.5-146c5.8-22.5 28.9-33.7 46.2-33.7H694c17.3 0 40.4 16.8 46.2 33.7l63.5 146c5.8 16.8 0 33.7-23.1 33.7H249.2c-17.4-5.6-28.9-16.8-17.4-33.7z m138.7 191c0 11.2-5.8 16.8-17.3 16.8H231.8c-11.6 0-17.3-5.6-17.3-16.8v-56.2c0-11.2 11.6-16.8 17.3-16.8h121.3c11.6 0 17.3 5.6 17.3 16.8v56.2z m444.8 0c0 11.2-5.8 16.8-17.3 16.8H676.6c-11.6 0-17.3-5.6-17.3-16.8v-56.2c0-11.2 5.8-16.8 17.3-16.8h121.3c11.6 0 17.3 5.6 17.3 16.8v56.2z" fill="#EA0029" p-id="48668"></path><path d="M487 215.3l-9.5 18h18z" fill="#EA0029" p-id="48669"></path></svg>