<?xml version="1.0" standalone="no"?><!DOCTYPE svg PUBLIC "-//W3C//DTD SVG 1.1//EN" "http://www.w3.org/Graphics/SVG/1.1/DTD/svg11.dtd"><svg t="1709566052543" class="icon" viewBox="0 0 1024 1024" version="1.1" xmlns="http://www.w3.org/2000/svg" p-id="3262" width="24" height="24" xmlns:xlink="http://www.w3.org/1999/xlink"><path d="M512 512m-480 0a480 480 0 1 0 960 0 480 480 0 1 0-960 0Z" fill="#1296db" p-id="3263" data-spm-anchor-id="a313x.manage_type_myprojects.0.i31.44e93a812dN99l" class="selected"></path><path d="M403.72 294.824l11.784-11.984 32.512 31.976-11.784 11.976zM457.6 313.6c0.8 4.8 5.6 7.2 9.6 6.4 4.8-0.8 7.2-5.6 6.4-9.6l-5.6-57.6c-0.8-4.8-5.6-7.2-9.6-6.4-4.8 0.8-7.2 5.6-6.4 9.6l5.6 57.6zM550.4 525.6c-1.6-4-6.4-6.4-10.4-4.8-4 1.6-6.4 6.4-4.8 10.4l48 88.8c1.6 4 6.4 6.4 10.4 4.8 4-1.6 6.4-6.4 4.8-10.4l-48-88.8zM492.584 576.504l10.112-44.464 16.384 3.72-10.112 44.464z" fill="#ffffff" p-id="3264"></path><path d="M844.8 644.8c-4-8.8-12.8-14.4-22.4-14.4h-7.2c-11.2 0-23.2 0.8-29.6-4-4.8-3.2-8-7.2-10.4-13.6l-37.6-93.6c14.4-7.2 31.2-17.6 42.4-34.4 2.4-3.2 4-7.2 6.4-10.4 4.8-9.6 7.2-20.8 8-32.8 0.8-18.4-3.2-37.6-8-53.6l-1.6-5.6c-1.6-4.8-2.4-8.8-4-14.4L768 330.4c-3.2-9.6-6.4-19.2-10.4-28l-12.8-32.8c-1.6-3.2-3.2-7.2-4.8-10.4l-17.6-40-16.8 6.4c-16.8 6.4-168.8 64.8-203.2 75.2l-19.2 5.6 7.2 18.4c4 9.6 7.2 19.2 11.2 28.8l9.6 24-22.4-7.2c-7.2-2.4-14.4-4.8-20.8-7.2L432 349.6c-48.8-18.4-99.2-37.6-114.4-43.2l-16-6.4-7.2 16c-16.8 36.8-31.2 74.4-44 113.6l-6.4 20.8c-1.6 4.8-3.2 9.6-4 14.4l-1.6 6.4c-4 16-8.8 34.4-8 53.6 0 11.2 3.2 22.4 8 32.8 1.6 3.2 4 7.2 5.6 10.4 11.2 16.8 28 27.2 42.4 34.4L248 694.4c-2.4 5.6-5.6 10.4-10.4 13.6-6.4 4-18.4 4-29.6 4h-6.4c-13.6 0-24 11.2-24.8 24 0 9.6 5.6 18.4 14.4 22.4 36 16.8 80 32 110.4 41.6 7.2 2.4 13.6 4 20.8 5.6 1.6 0 3.2 0.8 5.6 0.8 13.6 0 24-11.2 24-24.8 0-7.2-3.2-14.4-9.6-19.2-12-9.6-20.8-19.2-24-26.4-4.8-12 4-35.2 10.4-52 1.6-4 3.2-7.2 4-11.2l17.6-48.8c34.4 8 60.8 4.8 80.8-10.4 3.2-2.4 7.2-5.6 9.6-8.8 9.6-9.6 16-21.6 20.8-31.2 5.6-10.4 11.2-21.6 16-32l0.8-2.4c2.4-4.8 4-8.8 6.4-13.6l1.6-4c1.6-4 3.2-8 5.6-12l1.6-4c1.6-4 3.2-8 5.6-12.8l0.8-2.4c4-10.4 8-20.8 12.8-32l8.8-24c1.6-4.8 4-9.6 5.6-14.4 0.8 1.6 1.6 3.2 1.6 4.8l1.6 4 4.8 12 1.6 4c2.4 4.8 4 9.6 6.4 14.4l0.8 1.6c4.8 11.2 10.4 22.4 16.8 32.8 4.8 9.6 11.2 20.8 20.8 31.2 3.2 3.2 6.4 6.4 9.6 8.8 20 15.2 46.4 19.2 80.8 10.4l17.6 48.8c1.6 3.2 2.4 7.2 4 11.2 6.4 16.8 15.2 39.2 10.4 52-3.2 7.2-12 16.8-24 26.4-10.4 8-12 24-4 34.4 4.8 5.6 11.2 9.6 19.2 9.6 1.6 0 3.2 0 5.6-0.8 7.2-1.6 13.6-3.2 20.8-5.6 30.4-9.6 74.4-24.8 110.4-41.6 13.6-7.2 19.2-21.6 12.8-33.6zM501.6 430.4l-1.6 4-4 12-1.6 4.8-0.8 2.4c-0.8 0.8-2.4 1.6-4 2.4-9.6 5.6-24 14.4-48.8 18.4-32.8 5.6-42.4-0.8-54.4-11.2-4.8-4-9.6-8-17.6-12-15.2-7.2-23.2-3.2-43.2 7.2-8.8 4.8-17.6 10.4-29.6 15.2-8 3.2-15.2 4.8-21.6 4.8-5.6 0-11.2-1.6-15.2-4l1.6-4.8c0.8-4 2.4-8 3.2-12.8l0.8-2.4 0.8-1.6 0.8-3.2 1.6-5.6c12.8-40.8 28-80.8 45.6-120 16 6.4 65.6 25.6 112.8 43.2l36 13.6c7.2 2.4 14.4 4.8 21.6 8l32 10.4c-6.4 10.4-10.4 20.8-14.4 31.2z m189.6-50.4c-14.4-8.8-20.8-12-32-6.4-8 4-12.8 8-17.6 12-8.8 8-16.8 12.8-32.8 12.8-7.2 0-14.4-0.8-20.8-2.4-24.8-4-39.2-12.8-48-18.4-4-2.4-5.6-3.2-7.2-4-1.6-0.8-2.4-0.8-3.2 0l-4.8-8.8 4.8 8.8c0.8-0.8 1.6-0.8 3.2 0l-1.6-4-3.2-4-4.8-12v-0.8c-4-11.2-8.8-23.2-13.6-34.4C547.2 307.2 680 256 712 244l9.6 22.4c1.6 3.2 3.2 7.2 4 10.4l12.8 32.8c3.2 9.6 7.2 18.4 9.6 28l9.6 30.4 1.6 4.8 0.8 3.2v0.8c1.6 4 2.4 8.8 4 12.8l0.8 3.2c-8 5.6-19.2 8-33.6 5.6-16.8-4.8-29.6-12-40-18.4z" fill="#ffffff" p-id="3265"></path></svg>