<?xml version="1.0" standalone="no"?><!DOCTYPE svg PUBLIC "-//W3C//DTD SVG 1.1//EN" "http://www.w3.org/Graphics/SVG/1.1/DTD/svg11.dtd"><svg t="1709566107455" class="icon" viewBox="0 0 1024 1024" version="1.1" xmlns="http://www.w3.org/2000/svg" p-id="3700" width="24" height="24" xmlns:xlink="http://www.w3.org/1999/xlink"><path d="M483.370667 578.005333l57.088 100.096c42.581333-13.354667 89.728 4.778667 112.384 47.658667 13.482667 23.765333 17.493333 52.224 11.008 79.061333a103.850667 103.850667 0 0 1-45.44 64c-22.613333 14.165333-49.621333 18.346667-75.093334 11.52a99.669333 99.669333 0 0 1-60.842666-47.786666 108.074667 108.074667 0 0 1 18.090666-129.664l-13.568-24.746667c-11.776-22.912-33.536-36.266667-57.130666-41.984 15.445333-10.496 29.013333-23.850667 40.789333-40.064l12.714667-18.090667z m424.149333-417.664c5.461333 0 9.984 4.778667 9.984 9.557334v38.144c0 5.717333-4.522667 10.496-9.984 10.496H797.866667a8.362667 8.362667 0 0 0-8.149334 8.533333v27.690667c0 4.778667 3.626667 8.533333 8.149334 8.533333h108.8c6.314667 0 10.837333 5.76 10.837333 11.52v21.888a11.306667 11.306667 0 0 1-10.88 11.434667H797.866667a8.362667 8.362667 0 0 0-8.149334 8.576v27.648c0 4.778667 3.626667 8.618667 8.149334 8.618666h108.8c6.314667 0 10.837333 5.717333 10.837333 11.434667v21.930667a11.306667 11.306667 0 0 1-10.88 11.434666H797.866667a8.362667 8.362667 0 0 0-8.149334 8.576v27.648c0 4.778667 3.626667 8.576 8.149334 8.576h108.8c6.314667 0 10.837333 5.717333 10.837333 11.434667v21.930667a11.306667 11.306667 0 0 1-10.88 11.477333H797.866667a8.362667 8.362667 0 0 0-8.149334 8.533333v26.709334c0 4.778667 3.626667 8.618667 8.149334 8.618666h108.8c6.314667 0 10.837333 5.717333 10.837333 11.434667v21.930667a11.306667 11.306667 0 0 1-10.88 11.434666H797.866667a8.362667 8.362667 0 0 0-8.149334 8.576v26.709334c0 4.778667 3.626667 8.533333 8.149334 8.533333h108.8c6.314667 0 10.837333 5.76 10.837333 11.52v21.888c0 6.698667-4.522667 11.434667-10.88 11.434667H797.866667a8.362667 8.362667 0 0 0-8.149334 8.576v25.770666c0 4.778667 3.626667 8.533333 8.149334 8.533334h108.8c6.314667 0 10.837333 5.76 10.837333 11.52v21.888a11.306667 11.306667 0 0 1-10.88 11.434666H797.866667a8.362667 8.362667 0 0 0-8.149334 8.576v26.709334c0 4.778667 3.626667 8.576 8.149334 8.576h109.653333c5.461333 0 9.984 4.778667 9.984 10.496v43.861333c0 5.717333-4.522667 10.496-9.984 10.496h-160.426667c-27.178667 0-49.834667-22.869333-49.834666-52.48V212.864c0-28.586667 21.76-52.48 49.834666-52.48h160.426667z m-303.616 6.698667c2.730667-3.84 8.149333-2.858667 9.984 1.92 10.88 32.426667 36.266667 135.381333-29.909333 226.901333l-114.218667 157.354667-19.029333 25.728c-14.506667 20.053333-32.64 35.285333-55.296 44.8a76.714667 76.714667 0 0 1-20.821334 6.698667 51.029333 51.029333 0 0 1-12.714666 1.877333c-25.386667 1.92-48.938667 13.354667-64.341334 34.346667l-16.298666 22.869333c30.506667 37.12 32.042667 91.733333 3.626666 130.645333-32.64 44.8-95.146667 54.357333-138.666666 19.072s-52.608-100.138667-19.072-145.92a96 96 0 0 1 117.845333-32.426666l84.309333-116.309334 76.117334-104.874666 198.485333-272.682667z m7.253333 584.490667a48.469333 48.469333 0 0 0-67.968-18.133334c-23.594667 14.293333-30.805333 46.72-17.237333 71.509334 13.610667 24.789333 44.416 32.426667 67.968 18.133333 23.594667-15.274667 30.848-46.72 17.237333-71.509333z m-374.314666-36.266667a47.744 47.744 0 0 0-69.802667 9.557333 53.845333 53.845333 0 0 0 9.088 73.386667c21.76 17.194667 53.461333 13.397333 69.76-9.514667 16.341333-22.869333 11.776-56.234667-9.045333-73.386666z m185.813333-194.474667c-7.253333-12.373333-22.698667-17.152-34.474667-9.557333a27.392 27.392 0 0 0-9.045333 36.266667c7.253333 13.312 22.613333 17.152 34.432 9.514666 11.776-6.656 15.402667-22.869333 9.088-36.266666zM228.693333 144.128c1.792-4.736 7.253333-4.736 9.941334-0.938667l153.173333 271.786667L315.733333 519.765333 233.216 373.930667C177.024 274.773333 214.186667 174.677333 228.693333 144.128z" fill="#0095FF" p-id="3701"></path></svg>