<?xml version="1.0" standalone="no"?><!DOCTYPE svg PUBLIC "-//W3C//DTD SVG 1.1//EN" "http://www.w3.org/Graphics/SVG/1.1/DTD/svg11.dtd"><svg t="1709567750080" class="icon" viewBox="0 0 1024 1024" version="1.1" xmlns="http://www.w3.org/2000/svg" p-id="52163" width="24" height="24" xmlns:xlink="http://www.w3.org/1999/xlink"><path d="M51.201175 522.238668c0 60.177767 11.88605 119.764175 34.979751 175.359553a458.146672 458.146672 0 0 0 99.609346 148.663941 459.562348 459.562348 0 0 0 149.07866 99.332867A460.619625 460.619625 0 0 0 510.720003 980.4775a460.619625 460.619625 0 0 0 175.851072-34.882471 459.562348 459.562348 0 0 0 149.07866-99.332867 458.118512 458.118512 0 0 0 99.609346-148.663941A457.107314 457.107314 0 0 0 970.238831 522.238668c0-121.53313-48.414597-238.087073-134.589096-324.023493C749.472674 112.276194 632.591052 63.999837 510.720003 63.999837c-121.871049 0-238.752671 48.278917-324.929731 134.215338C99.613212 284.151595 51.201175 400.705538 51.201175 522.238668z" fill="#A5ADF6" p-id="52164"></path><path d="M831.638225 1023.997389c-15.49564 0-30.489522-8.02814-38.456222-22.187464l-99.064067-175.292993a42.163092 42.163092 0 0 1-5.201907-15.946199c-0.645118-5.596146-0.15616-11.263971 1.438716-16.675797 3.225592-10.931172 10.762213-20.162509 20.953547-25.666495a44.671886 44.671886 0 0 1 16.322518-5.081587 44.927885 44.927885 0 0 1 17.070037 1.407996c11.187171 3.148792 20.638667 10.511333 26.270653 20.469708l99.064067 175.290433c11.73245 20.718027 4.01407 46.827401-17.190356 58.288492a44.305807 44.305807 0 0 1-21.206986 5.393906z" fill="#A5ADF6" p-id="52165"></path><path d="M769.402224 784.981038c-11.507171-20.671947-37.721504-28.193208-58.521451-16.757717-20.799947 11.438051-28.369848 37.491104-16.862677 58.165612L744.048048 916.477663c24.985536-14.863322 48.432516-31.925679 70.031182-51.06931l-44.677006-80.427315z" fill="#837EF9" p-id="52166"></path><path d="M194.919209 1023.997389c15.4982 0 30.492082-8.02814 38.458781-22.187464l99.064068-175.292993a42.163092 42.163092 0 0 0 5.201907-15.946199c0.645118-5.596146 0.15616-11.263971-1.438717-16.675797a42.582931 42.582931 0 0 0-7.8643-14.868443 43.704209 43.704209 0 0 0-13.089246-10.798052 44.671886 44.671886 0 0 0-16.322519-5.081587 44.927885 44.927885 0 0 0-17.070036 1.407996 44.280207 44.280207 0 0 0-15.219161 7.682541 43.11029 43.11029 0 0 0-11.051492 12.787167l-99.064068 175.290433c-11.73245 20.718027-4.01407 46.827401 17.190357 58.288492A44.298127 44.298127 0 0 0 194.921769 1023.997389z" fill="#A5ADF6" p-id="52167"></path><path d="M315.505141 768.223321a43.594129 43.594129 0 0 0-16.092119-5.076467 43.742608 43.742608 0 0 0-16.829397 1.405436 43.427729 43.427729 0 0 0-15.004122 7.672301 42.95669 42.95669 0 0 0-10.897892 12.769247L209.92077 868.787545A464.710495 464.710495 0 0 0 280.80443 919.037656l51.711868-92.607763c11.566051-20.687307 3.95775-46.760841-17.011157-58.206572z" fill="#837EF9" p-id="52168"></path><path d="M5.121293 197.119497a197.116937 197.116937 0 1 0 394.238994 0A197.111817 197.111817 0 0 0 202.24079 0 197.119497 197.119497 0 0 0 5.121293 197.119497z" fill="#A5ADF6" p-id="52169"></path><path d="M84.48109 353.522299A194.106385 194.106385 0 0 0 203.664146 394.238995C311.772671 394.238995 399.360287 306.241779 399.360287 197.764616c0-41.080215-12.590048-79.244598-34.078633-110.724838C236.836542 129.45887 133.753285 227.847099 84.48109 353.522299z" fill="#837EF9" p-id="52170"></path><path d="M627.199706 197.119497c0 52.280187 20.633547 102.417659 57.359214 139.383965C721.287146 373.472328 771.099499 394.238995 823.039207 394.238995s101.752061-20.766667 138.480287-57.735533C998.24516 299.537156 1018.878707 249.399684 1018.878707 197.119497c0-52.280187-20.633547-102.417659-57.359213-139.383964C924.791267 20.769227 874.978914 0 823.039207 0s-101.752061 20.766667-138.480287 57.735533C647.833254 94.701839 627.199706 144.839311 627.199706 197.119497z" fill="#A5ADF6" p-id="52171"></path><path d="M660.415622 87.039778A196.899338 196.899338 0 0 0 627.199706 196.827658c0 109.055722 88.086815 197.411337 196.674059 197.411337 43.25365 0 83.220268-14.044124 115.645145-37.795744C891.096633 230.166453 788.591935 130.882226 660.415622 87.039778z" fill="#837EF9" p-id="52172"></path><path d="M693.411377 586.238505h-178.503224C487.841342 586.238505 465.920118 564.406881 465.920118 537.45015v-240.342428C465.920118 270.150991 487.841342 248.319367 514.908153 248.319367c27.066811 0 48.988035 21.831624 48.988035 48.788355v191.554072h129.515189c27.066811 0 48.988035 21.834184 48.988035 48.788356 0 26.956731-21.921224 48.788356-48.988035 48.788355z" fill="#FFFFFF" p-id="52173"></path></svg>