<?xml version="1.0" standalone="no"?><!DOCTYPE svg PUBLIC "-//W3C//DTD SVG 1.1//EN" "http://www.w3.org/Graphics/SVG/1.1/DTD/svg11.dtd"><svg t="1709566248100" class="icon" viewBox="0 0 1024 1024" version="1.1" xmlns="http://www.w3.org/2000/svg" p-id="4396" width="24" height="24" xmlns:xlink="http://www.w3.org/1999/xlink"><path d="M629.6 781.714286h-235.428571c-11.771429 0-21.714286-9.028571-22.742858-20.8l-6.514285-71.657143c-2.514286-27.885714-12.228571-54.857143-28.114286-78.057143-3.2-4.342857-36.114286-49.942857-69.6-107.314286-47.542857-81.485714-71.542857-144.571429-71.542857-187.657143 0-84.457143 32.914286-163.885714 92.685714-223.657142S427.428571 0 511.885714 0c84.457143 0 163.885714 32.914286 223.657143 92.685714s92.685714 139.2 92.685714 223.657143c0 43.085714-24.114286 106.171429-71.542857 187.657143-33.485714 57.371429-66.4 102.971429-69.6 107.314286-15.885714 23.085714-25.6 50.171429-28.114285 78.057143l-6.514286 71.657142c-1.142857 11.657143-11.085714 20.685714-22.857143 20.685715z m-214.514286-45.714286h193.714286l4.685714-50.857143c3.314286-35.771429 15.771429-70.4 36.114286-100 0.114286-0.228571 0.228571-0.342857 0.342857-0.571428 36.914286-50.628571 132.571429-197.485714 132.571429-268.342858 0-72.228571-28.114286-140.228571-79.2-191.314285C652.114286 73.828571 584.114286 45.714286 511.885714 45.714286s-140.228571 28.114286-191.314285 79.2c-51.085714 51.085714-79.2 119.085714-79.2 191.314285 0 70.857143 95.657143 217.714286 132.571428 268.342858 0.114286 0.114286 0.228571 0.342857 0.342857 0.571428 20.342857 29.6 32.914286 64.228571 36.114286 100l4.685714 50.857143zM624.342857 863.771429H396.571429c-12.571429 0-22.857143-10.285714-22.857143-22.857143s10.285714-22.857143 22.857143-22.857143h227.771428c12.571429 0 22.857143 10.285714 22.857143 22.857143s-10.285714 22.857143-22.857143 22.857143zM624.342857 945.714286H396.571429c-12.571429 0-22.857143-10.285714-22.857143-22.857143s10.285714-22.857143 22.857143-22.857143h227.771428c12.571429 0 22.857143 10.285714 22.857143 22.857143s-10.285714 22.857143-22.857143 22.857143zM577.257143 1023.771429H443.657143c-12.571429 0-22.857143-10.285714-22.857143-22.857143s10.285714-22.857143 22.857143-22.857143h133.6c12.571429 0 22.857143 10.285714 22.857143 22.857143s-10.171429 22.857143-22.857143 22.857143z" p-id="4397" data-spm-anchor-id="a313x.manage_type_myprojects.0.i51.44e93a812dN99l" class="selected" fill="#1296db"></path><path d="M611.428571 193.142857c-8.914286-8.914286-23.428571-8.914286-32.342857 0l-66.971428 66.971429-65.257143-65.257143c-8.914286-8.914286-23.428571-8.914286-32.342857 0s-8.914286 23.428571 0 32.342857l60.114285 60.114286h-34.057142c-12.571429 0-22.857143 10.285714-22.857143 22.857143s10.285714 22.857143 22.857143 22.857142h48.914285v58.171429h-48.914285c-12.571429 0-22.857143 10.285714-22.857143 22.857143s10.285714 22.857143 22.857143 22.857143h48.914285v74.628571c0 12.571429 10.285714 22.857143 22.857143 22.857143s22.857143-10.285714 22.857143-22.857143v-74.628571h48.914286c12.571429 0 22.857143-10.285714 22.857143-22.857143s-10.285714-22.857143-22.857143-22.857143h-48.914286v-58.171429h48.914286c12.571429 0 22.857143-10.285714 22.857143-22.857142s-10.285714-22.857143-22.857143-22.857143H549.714286l61.828571-61.828572c8.914286-8.914286 8.914286-23.428571-0.114286-32.342857z" p-id="4398" data-spm-anchor-id="a313x.manage_type_myprojects.0.i52.44e93a812dN99l" class="selected" fill="#1296db"></path></svg>