<?xml version="1.0" standalone="no"?><!DOCTYPE svg PUBLIC "-//W3C//DTD SVG 1.1//EN" "http://www.w3.org/Graphics/SVG/1.1/DTD/svg11.dtd"><svg t="1709566384058" class="icon" viewBox="0 0 1024 1024" version="1.1" xmlns="http://www.w3.org/2000/svg" p-id="5176" width="24" height="24" xmlns:xlink="http://www.w3.org/1999/xlink"><path d="M789.300119 577.126276l0-40.264029L479.89735 299.896254 168.159396 536.862247l0 359.162056 192.378495 0 0.001023-246.043742 238.397598 0.462534 0 24.578792c-15.090697 27.380604-23.686469 58.843176-23.686469 92.316545 0 33.474392 8.595772 64.936965 23.687492 92.317569l0 36.368302 25.982768 0c35.040051 38.606273 85.622076 62.851467 141.866055 62.851467 105.783255 0 191.538361-85.755106 191.538361-191.537338C958.32472 669.174716 884.471688 588.271104 789.300119 577.126276zM766.788405 938.576445c-94.572936 0-171.239036-76.6661-171.239036-171.238013 0-94.572936 76.6661-171.239036 171.239036-171.239036 94.571912 0 171.238013 76.6661 171.238013 171.239036C938.026418 861.911368 861.360318 938.576445 766.788405 938.576445zM858.77647 654.383848l-31.561833 0L774.973832 756.844427l-51.619658-102.46058-32.962739 0 70.123081 130.912585 0 7.308453-57.839313 0 0 21.457708 57.526181 0 0 21.457708-57.526181 0 0 21.455661 57.526181 0 0 28.92068L789.433148 885.896642l0-28.92068 57.529251 0 0-21.455661L789.433148 835.520301l0-21.457708 57.529251 0 0-21.457708-57.839313 0 0-7.308453L858.77647 654.383848zM894.685307 536.862247 894.685307 395.654178 479.89735 62.9671l0-0.037862-0.023536 0.019443-0.023536-0.019443L479.850278 62.9671 65.063343 395.653155l0 141.209092 414.810471-334.585311L894.685307 536.862247z" fill="#1296db" p-id="5177"></path></svg>