<svg xmlns="http://www.w3.org/2000/svg" xmlns:xlink="http://www.w3.org/1999/xlink" fill="none" version="1.1" width="24.0001220703125" height="22.4033203125" viewBox="0 0 24.0001220703125 22.4033203125"><g><g><path d="M18.104,21.803048852539064C19.0523,21.803048852539064,19.8211,21.03424885253906,19.8211,20.08604885253906C19.8211,20.08604885253906,19.8211,16.984948852539063,19.8211,16.984948852539063C19.8211,16.984948852539063,10.6464,21.803048852539064,10.6464,21.803048852539064C10.6464,21.803048852539064,18.1041,21.803048852539064,18.1041,21.803048852539064C18.1041,21.803048852539064,18.104,21.803048852539064,18.104,21.803048852539064ZM19.8211,3.6989888525390624C19.8211,2.7506868525390624,19.0524,1.9819488525390625,18.1041,1.9819488525390625C18.1041,1.9819488525390625,16.5175,1.9819488525390625,16.5175,1.9819488525390625C16.5175,1.9819488525390625,16.5175,3.7443088525390626,16.5175,3.7443088525390626C16.5175,3.9872588525390626,16.3205,4.184248852539063,16.0776,4.184248852539063C16.0776,4.184248852539063,15.4158,4.184248852539063,15.4158,4.184248852539063C15.1728,4.184248852539063,14.9758,3.9872588525390626,14.9758,3.7442788525390625C14.9758,3.7442788525390625,14.9758,1.9821014405390625,14.9758,1.9821014405390625C14.9758,1.9821014405390625,4.84515,1.9821014405390625,4.84515,1.9821014405390625C4.84515,1.9821014405390625,4.84515,3.7444288525390625,4.84515,3.7444288525390625C4.84515,3.9874088525390623,4.64818,4.1843688525390625,4.4052,4.1843688525390625C4.4052,4.1843688525390625,3.7434,4.1843688525390625,3.7434,4.1843688525390625C3.50043,4.1843688525390625,3.30346,3.9874088525390623,3.30346,3.7444288525390625C3.30346,3.7444288525390625,3.30346,1.9821014405390625,3.30346,1.9821014405390625C3.30346,1.9821014405390625,1.71706,1.9821014405390625,1.71706,1.9821014405390625C0.768761,1.9821014405390625,0.00000762939,2.7508388525390624,0.00000762939,3.6991388525390625C0.00000762939,3.6991388525390625,0.00000762939,5.9464288525390625,0.00000762939,5.9464288525390625C0.00000762939,5.9464288525390625,19.8211,5.9464288525390625,19.8211,5.9464288525390625C19.8211,5.9464288525390625,19.8211,3.6989888525390624,19.8211,3.6989888525390624C19.8211,3.6989888525390624,19.8211,3.6989888525390624,19.8211,3.6989888525390624ZM2.34601,19.361648852539062C2.3712,19.15784885253906,2.46043,18.96734885253906,2.60086,18.817448852539062C2.877,18.52514885253906,3.3597,18.379548852539063,3.8295,18.529148852539063C4.64026,18.786548852539063,5.92755,19.071348852539064,6.91245,19.485848852539064C6.981,19.509248852539063,7.05556,19.508148852539062,7.12334,19.482748852539064C7.12334,19.482748852539064,9.49244,18.39414885253906,9.49244,18.39414885253906C9.60974,18.31194885253906,9.79079,18.066648852539064,9.48495,17.902748852539062C9.48495,17.902748852539062,4.9719,15.865148852539063,4.9719,15.865148852539063C4.7193,15.774348852539063,4.46176,15.422848852539062,4.88145,15.133648852539062C5.14816,14.934848852539062,5.41245,14.725448852539062,5.68561,14.534148852539062C5.92755,14.352248852539063,6.26895,14.067548852539062,6.70155,14.126248852539062C9.52079,14.398748852539063,12.3393,14.693948852539062,15.1587,14.976248852539063C15.2038,14.978548852539063,15.249,14.969648852539063,15.2898,14.950348852539063C16.8021,14.285548852539062,18.2946,13.576748852539062,19.7656,12.824948852539062C19.7839,12.816248852539063,19.8027,12.808748852539063,19.821,12.800348852539063C19.821,12.800348852539063,19.821,6.386698852539062,19.821,6.386698852539062C19.821,6.386698852539062,0,6.386698852539062,0,6.386698852539062C0,6.386698852539062,0,20.08604885253906,0,20.08604885253906C0,21.03434885253906,0.768753,21.803048852539064,1.71705,21.803048852539064C1.71705,21.803048852539064,4.84186,21.803048852539064,4.84186,21.803048852539064C4.84186,21.803048852539064,2.56501,19.89864885253906,2.56501,19.89864885253906C2.4123,19.763548852539063,2.33132,19.56494885253906,2.34602,19.361648852539062C2.34602,19.361648852539062,2.34601,19.361648852539062,2.34601,19.361648852539062Z" fill="#D34D5B" fill-opacity="1"/></g><g><path d="M3.743522611999512,4.1844C3.743522611999512,4.1844,4.405322611999512,4.1844,4.405322611999512,4.1844C4.648312611999511,4.1844,4.845282611999512,3.98741,4.845282611999512,3.74445C4.845282611999512,3.74445,4.845282611999512,0.439957,4.845282611999512,0.439957C4.845282611999512,0.196976,4.648312611999511,0,4.405322611999512,0C4.405322611999512,0,3.743522611999512,0,3.743522611999512,0C3.5005526119995114,0,3.303581611999512,0.196976,3.303581611999512,0.439957C3.303581611999512,0.439957,3.303581611999512,3.74445,3.303581611999512,3.74445C3.303581611999512,3.98741,3.5005526119995114,4.1844,3.743522611999512,4.1844C3.743522611999512,4.1844,3.743522611999512,4.1844,3.743522611999512,4.1844ZM15.415922611999513,4.1844C15.415922611999513,4.1844,16.077722611999512,4.1844,16.077722611999512,4.1844C16.320722611999514,4.1844,16.51772261199951,3.98741,16.51772261199951,3.74445C16.51772261199951,3.74445,16.51772261199951,0.439957,16.51772261199951,0.439957C16.51772261199951,0.196976,16.320722611999514,0,16.077722611999512,0C16.077722611999512,0,15.415922611999513,0,15.415922611999513,0C15.172922611999512,0,14.976022611999511,0.196976,14.976022611999511,0.439957C14.976022611999511,0.439957,14.976022611999511,3.74445,14.976022611999511,3.74445C14.976022611999511,3.98741,15.172922611999512,4.1844,15.415922611999513,4.1844C15.415922611999513,4.1844,15.415922611999513,4.1844,15.415922611999513,4.1844ZM23.827722611999512,13.1602C23.462822611999513,12.7581,22.663022611999512,12.3624,21.647822611999512,12.3801C21.647822611999512,12.3801,21.647822611999512,12.379,21.647822611999512,12.379C21.016422611999513,12.3923,20.394622611999512,12.5358,19.821222611999513,12.8005C19.802922611999513,12.8089,19.78422261199951,12.8164,19.76592261199951,12.8251C18.29492261199951,13.5768,16.802322611999514,14.2855,15.29012261199951,14.9505C15.249222611999512,14.9698,15.204122611999512,14.9787,15.15902261199951,14.9764C12.339592611999512,14.6941,9.52108261199951,14.3988,6.701852611999512,14.1264C6.269252611999512,14.0677,5.927852611999512,14.3524,5.685902611999511,14.5344C5.412602611999512,14.7255,5.148312611999511,14.935,4.881752611999511,15.1338C4.462042611999512,15.4228,4.719752611999512,15.7746,4.972192611999512,15.8653C4.972192611999512,15.8653,9.48523261199951,17.9029,9.48523261199951,17.9029C9.791082611999512,18.0669,9.61004261199951,18.312,9.49274261199951,18.3943C9.49274261199951,18.3943,7.123632611999512,19.4829,7.123632611999512,19.4829C7.055842611999512,19.5084,6.981282611999512,19.5096,6.912722611999512,19.486C5.927852611999512,19.0716,4.640402611999512,18.7866,3.829792611999512,18.5293C3.3599926119995116,18.3799,2.877296611999512,18.5253,2.601142611999512,18.8176C2.4607616119995117,18.9675,2.371543911999512,19.158,2.3463058419995115,19.3618C2.331703211999512,19.5652,2.412727311999512,19.7637,2.5654526119995116,19.8988C2.5654526119995116,19.8988,4.842292611999511,21.8032,4.842292611999511,21.8032C4.842292611999511,21.8032,5.299052611999512,22.1853,5.299052611999512,22.1853C5.612842611999511,22.4448,6.014702611999512,22.4081,6.324282611999512,22.3915C6.9977826119995115,22.353,7.4074326119995115,22.3261,8.065332611999512,22.2672C8.442022611999512,22.2289,8.80871261199951,22.1231,9.147882611999512,21.9549C14.089622611999511,19.4398,23.324222611999513,14.4912,23.324222611999513,14.4912C24.036122611999513,14.0661,24.15262261199951,13.5054,23.827722611999512,13.1602C23.827722611999512,13.1602,23.827722611999512,13.1602,23.827722611999512,13.1602Z" fill="#0D3F70" fill-opacity="1"/></g></g></svg>