<?xml version="1.0" standalone="no"?><!DOCTYPE svg PUBLIC "-//W3C//DTD SVG 1.1//EN" "http://www.w3.org/Graphics/SVG/1.1/DTD/svg11.dtd"><svg t="1709566865493" class="icon" viewBox="0 0 1075 1024" version="1.1" xmlns="http://www.w3.org/2000/svg" p-id="12749" width="25.1953125" height="24" xmlns:xlink="http://www.w3.org/1999/xlink"><path d="M423.9872 4.8896c230.5792 0 417.4592 188.0832 417.4592 419.9168 0 26.4704-1.7152 51.968-5.0688 76.3904l-2.2272 14.5408-63.104-10.5984c4.224-25.2672 6.4-52.0448 6.4-80.3328 0-196.608-158.336-355.9168-353.4592-355.9168-195.2 0-353.5104 159.3088-353.5104 355.9168 0 171.1616 84.864 290.56 224.5376 336.2304l7.8336 2.4832-18.56 61.2352c-171.52-51.968-277.8112-197.632-277.8112-399.9488 0-231.8592 186.88-419.9168 417.5104-419.9168z" fill="#5AC2EE" p-id="12750"></path><path d="M422.4 115.8144c41.0368 0 81.92 27.0336 91.5712 64.128a32 32 0 0 1-61.952 16.0768c-1.792-6.8096-16-16.2048-29.6192-16.2048-13.2096 0-22.6816 5.9904-29.952 18.688l-1.92 3.6608a32 32 0 1 1-57.3952-28.3648c17.664-35.7632 48.7424-57.984 89.2672-57.984z" fill="#5AC2EE" p-id="12751"></path><path d="M457.3696 97.4848A32 32 0 1 1 508.672 135.68c-18.7904 25.2416-48.896 39.5264-86.2208 39.5264-39.1168 0-78.9248-17.4592-90.4448-47.0528a32 32 0 1 1 59.648-23.1936c-0.896-2.304 0.8704-0.8192 5.2224 1.1008 7.296 3.2 16.6912 5.1456 25.5744 5.1456 16 0 26.4448-4.2752 33.024-11.52l1.8688-2.2272zM269.7728 580.3008c-0.0256 203.264 164.5312 368.0512 367.488 368.0512 200.2688 0 363.1104-160.4608 367.36-360.0384l0.1024-7.9872h64c0 238.592-193.1776 432.0256-431.4624 432.0256-235.5712 0-427.008-188.9792-431.4112-423.7568l-0.0768-8.32h64z" fill="#5AC2EE" p-id="12752"></path><path d="M974.9504 580.2752c0 186.752-151.1936 338.176-337.7152 338.176-183.8336 0-333.3888-147.1232-337.6128-330.1632l-0.1024-7.9616h64c0 151.3728 122.5728 274.1248 273.7152 274.1248 148.7104 0 269.7472-118.8096 273.6128-266.8544l0.1024-7.3216h64z" fill="#5AC2EE" p-id="12753"></path><path d="M727.3472 580.2752a90.1376 90.1376 0 0 1-180.096 4.992l-0.1536-4.9408h64a26.112 26.112 0 1 0 52.096 2.816l0.1536-2.8672h64z" fill="#5AC2EE" p-id="12754"></path><path d="M579.328 548.2752a32 32 0 0 1 3.2512 63.8464l-3.2512 0.1536H237.9776a32 32 0 0 1-3.2768-63.8208l3.2768-0.1792H579.328zM1036.5952 548.2752a32 32 0 0 1 3.2768 63.8464l-3.2768 0.1536h-341.248a32 32 0 0 1-3.2512-63.8208l3.2512-0.1792h341.248zM605.2864 640.1792h64l-0.0256 245.4272h-64z" fill="#5AC2EE" p-id="12755"></path><path d="M582.9888 608l45.2864 45.2096-174.7456 174.9504-45.312-45.2352zM692.096 608.512l174.0032 174.2592-45.312 45.2096-173.9776-174.2592z" fill="#5AC2EE" p-id="12756"></path><path d="M228.48 402.3552m-28.9792 0a28.9792 28.9792 0 1 0 57.9584 0 28.9792 28.9792 0 1 0-57.9584 0Z" fill="#5AC2EE" p-id="12757"></path><path d="M247.7824 305.7408m-28.9792 0a28.9792 28.9792 0 1 0 57.9584 0 28.9792 28.9792 0 1 0-57.9584 0Z" fill="#5AC2EE" p-id="12758"></path><path d="M151.1936 440.9856m-28.9792 0a28.9792 28.9792 0 1 0 57.9584 0 28.9792 28.9792 0 1 0-57.9584 0Z" fill="#5AC2EE" p-id="12759"></path><path d="M151.1936 344.3968m-28.9792 0a28.9792 28.9792 0 1 0 57.9584 0 28.9792 28.9792 0 1 0-57.9584 0Z" fill="#5AC2EE" p-id="12760"></path></svg>