<?xml version="1.0" standalone="no"?><!DOCTYPE svg PUBLIC "-//W3C//DTD SVG 1.1//EN" "http://www.w3.org/Graphics/SVG/1.1/DTD/svg11.dtd"><svg t="1709565947915" class="icon" viewBox="0 0 1024 1024" version="1.1" xmlns="http://www.w3.org/2000/svg" p-id="2458" width="24" height="24" xmlns:xlink="http://www.w3.org/1999/xlink"><path d="M262.4 390.4h-51.2a25.6 25.6 0 1 0 0 51.2h51.2v51.2a25.6 25.6 0 1 0 51.2 0v-51.2h51.2a25.6 25.6 0 1 0 0-51.2h-51.2v-51.2a25.6 25.6 0 1 0-51.2 0v51.2z m376.6528 304.3392C631.328 631.424 577.3888 582.4 512 582.4s-119.328 49.0304-127.0528 112.3392C359.0272 803.1232 308.1344 876.8 249.6 876.8c-84.832 0-153.6-154.7328-153.6-345.6 0-144.4864 39.4048-268.2624 95.36-319.8912C230.7648 171.712 285.312 147.2 345.6 147.2h8.0448l0.0256 0.032a35.1296 35.1296 0 0 1 28.6528 12.736h0.0384C403.7888 186.3168 453.76 204.8 512 204.8c58.24 0 108.2112-18.4832 129.6384-44.832h0.032a35.1296 35.1296 0 0 1 28.6592-12.736l0.0256-0.032H678.4c60.2816 0 114.8352 24.512 154.24 64.1088C888.5952 262.9376 928 386.7136 928 531.2c0 190.8672-68.768 345.6-153.6 345.6-58.5344 0-109.4272-73.6768-135.3472-182.0608zM748.8 492.8c42.4128 0 76.8-34.3872 76.8-76.8s-34.3872-76.8-76.8-76.8-76.8 34.3872-76.8 76.8 34.3872 76.8 76.8 76.8z" fill="#59AAFF" p-id="2459"></path></svg>