<?xml version="1.0" standalone="no"?><!DOCTYPE svg PUBLIC "-//W3C//DTD SVG 1.1//EN" "http://www.w3.org/Graphics/SVG/1.1/DTD/svg11.dtd"><svg t="1709568040053" class="icon" viewBox="0 0 1024 1024" version="1.1" xmlns="http://www.w3.org/2000/svg" p-id="63341" width="24" height="24" xmlns:xlink="http://www.w3.org/1999/xlink"><path d="M764.827648 60.326912c-42.902528-42.899456-112.457728-42.899456-155.360256 0l-93.618176 93.621248-93.621248-93.621248c-42.9056-42.899456-112.457728-42.899456-155.360256 0-42.899456 42.902528-42.899456 112.457728 0 155.360256l25.347072 24.6272 56.35072-0.070656-53.660672-53.660672c-27.496448-27.49952-27.496448-72.081408 0-99.580928 27.49952-27.49952 72.08448-27.49952 99.584 0l122.606592 122.606592L639.706112 87.00416c27.49952-27.49952 72.081408-27.49952 99.580928 0s27.498496 72.081408 0 99.580928l-53.248 53.248 54.711296-0.067584 24.077312-24.077312C807.727104 172.785664 807.727104 103.22944 764.827648 60.326912z" fill="#FF9000" p-id="63342"></path><path d="M945.181696 566.281216l-0.892928-241.502208c0-28.532736-23.128064-51.657728-51.6608-51.657728l-49.705984-0.254976c-0.538624 0.047104-0.9984 0.310272-1.545216 0.310272l-299.357184 0.36864 0 292.736L945.181696 566.281216z" fill="#FF9000" p-id="63343"></path><path d="M95.84128 606.748672l0 327.877632c0 28.532736 23.126016 51.657728 51.657728 51.657728l354.05312 0 0-379.53536L95.84128 606.748672z" fill="#FF9000" p-id="63344"></path><path d="M501.552128 273.59232l-270.926848 0.333824-0.023552 0c-0.804864 0-1.496064-0.351232-2.274304-0.456704l-80.828416-0.34816c-28.532736 0-51.657728 23.126016-51.657728 51.657728l0 241.502208 405.711872 0L501.553152 273.59232z" fill="#FF9000" p-id="63345"></path><path d="M542.019584 986.284032l350.608384 0c28.532736 0 51.6608-23.126016 51.6608-51.657728L944.288768 606.748672 542.019584 606.748672 542.019584 986.284032z" fill="#FF9000" p-id="63346"></path><path d="M501.552128 606.748672l0.280576 0 0 379.53536-0.280576 0 0-379.53536Z" fill="#FFFFFF" p-id="63347"></path><path d="M501.833728 566.281216l0-287.10912c0-1.978368 0.541696-3.796992 1.127424-5.582848l-1.408 0.003072 0 292.688896L501.833728 566.281216z" fill="#FFFFFF" p-id="63348"></path><path d="M939.52 604.452864 542.019584 604.452864l0 2.294784 402.269184 0 0-3.258368C942.737408 603.926528 941.211648 604.452864 939.52 604.452864z" fill="#FFFFFF" p-id="63349"></path></svg>