<?xml version="1.0" standalone="no"?><!DOCTYPE svg PUBLIC "-//W3C//DTD SVG 1.1//EN" "http://www.w3.org/Graphics/SVG/1.1/DTD/svg11.dtd"><svg t="1709567142121" class="icon" viewBox="0 0 1024 1024" version="1.1" xmlns="http://www.w3.org/2000/svg" p-id="26957" width="24" height="24" xmlns:xlink="http://www.w3.org/1999/xlink"><path d="M732.93453212 732.93453212c-129.467636 129.467636-165.70089876 165.70089876-165.70089877 165.70089876l0-276.16816417c0 0 201.93416154-34.521021 226.12649275-169.18061764S819.26470038 253.11996207 732.93453212 125.36456912l-105.27530478 113.94698428L512 70.13093706 396.34077266 239.3115547 291.06546788 125.36456912c-86.33016827 127.75539295-84.56269244 193.31771479-60.42559398 327.97731271S456.76636665 622.46726541 456.76636665 622.46726541l0 276.16816418c0 0-36.23326276-36.23326276-165.70089877-165.70089876s-229.44051073-220.93453212-229.44051073-220.93453213 0 93.23437194 0 276.16816418S235.83183582 1009.1026963 235.83183582 1009.1026963s153.99136901-0.05523407 276.16816418-0.05523407S788.16816418 1009.1026963 788.16816418 1009.1026963s174.20687867-38.00073988 174.20687867-220.93453212 0-276.16816418 0-276.16816418S862.40216682 603.46689612 732.93453212 732.93453212z" fill="#1196db" p-id="26958"></path></svg>