<?xml version="1.0" standalone="no"?><!DOCTYPE svg PUBLIC "-//W3C//DTD SVG 1.1//EN" "http://www.w3.org/Graphics/SVG/1.1/DTD/svg11.dtd"><svg t="1709568639080" class="icon" viewBox="0 0 1024 1024" version="1.1" xmlns="http://www.w3.org/2000/svg" p-id="11210" width="24" height="24" xmlns:xlink="http://www.w3.org/1999/xlink"><path d="M916.33 600.27c-2.54-10.06-11.59-17.12-21.96-17.12-139.57 0-180.68-115.54-182.34-120.38-3.07-9.25-11.73-15.48-21.47-15.48v-90.58h22.32c3.67 0 7.27-0.9 10.52-2.6l90.6-47.56c9.22-4.84 13.96-15.35 11.46-25.46-2.5-10.12-11.57-17.23-21.98-17.23-150.57 0-276.11-127.24-277.77-128.94-0.1-0.11-0.13-0.25-0.23-0.36-1.13-0.9-2.27-1.81-3.4-2.72-1.08-0.72-2.16-1.18-3.24-1.62-0.4-0.19-0.78-0.38-1.2-0.54-1.25-0.58-2.49-1.03-3.73-1.24-1.04-0.21-2.07-0.09-3.11-0.16-0.48-0.03-0.91-0.28-1.4-0.28h-0.03c-0.29 0-0.55 0.16-0.83 0.17-2.46 0.1-4.87 0.54-7.15 1.46-1.41 0.54-2.58 1.43-3.86 2.24-1.4 0.86-2.94 1.54-4.21 2.69-0.1 0.11-0.14 0.26-0.24 0.37-1.45 1.49-126.32 128.93-277.49 128.93-10.42 0-19.5 7.11-21.99 17.23-2.48 10.12 2.25 20.63 11.47 25.46l90.63 47.56a22.6 22.6 0 0 0 10.53 2.6h22.01v90.58c-9.75 0-18.4 6.23-21.49 15.48-0.4 1.2-41.75 120.38-182.32 120.38-10.37 0-19.41 7.05-21.96 17.12-2.53 10.04 2.09 20.54 11.22 25.48L202 673.31c3.3 1.77 6.99 2.7 10.73 2.7h24.92v244.68c0 12.52 10.14 22.65 22.64 22.65s22.65-10.13 22.65-22.65v-28.15l45.29-12.44v17.97c0 12.52 10.14 22.65 22.65 22.65s22.65-10.13 22.65-22.65V873.2l271.75 1.93v22.94c0 12.52 10.13 22.65 22.64 22.65 12.52 0 22.65-10.13 22.65-22.65v-16.42l45.29 11.32v27.73c0 12.52 10.13 22.65 22.65 22.65 12.52 0 22.65-10.13 22.65-22.65V676.01h24.9c3.73 0 7.43-0.93 10.74-2.7l88.33-47.57c9.12-4.93 13.75-15.43 11.2-25.47zM645.27 447.29h-45.29v-90.58h45.29v90.58z m-90.58-90.58v90.58h-90.58v-90.58h90.58z m-263.73-56.23c103.4-23.48 185-88.52 218.45-118.64 33.52 30.12 115.25 95.17 218.7 118.64l-20.81 10.94H311.8l-20.84-10.94z m82.57 56.23h45.29v90.58h-45.29v-90.58z m-90.59 488.87V676.01h45.29v157.12l-45.29 12.45z m90.59-17.68V676.01h271.75v153.82l-271.75-1.93z m362.32 18.39l-45.29-11.32V676.01h45.29v170.28z m64.49-215.57H218.45l-22.17-11.94c89.22-25.57 131.77-95.03 146.82-126.2h332.6c15.04 31.17 57.59 100.63 146.82 126.2l-22.18 11.94z m0 0" fill="#1296db" p-id="11211"></path><path d="M509 110.4m-30.91 0a30.91 30.91 0 1 0 61.82 0 30.91 30.91 0 1 0-61.82 0Z" fill="#1296db" p-id="11212"></path></svg>