<?xml version="1.0" standalone="no"?><!DOCTYPE svg PUBLIC "-//W3C//DTD SVG 1.1//EN" "http://www.w3.org/Graphics/SVG/1.1/DTD/svg11.dtd"><svg t="1709568235199" class="icon" viewBox="0 0 1024 1024" version="1.1" xmlns="http://www.w3.org/2000/svg" p-id="4061" width="24" height="24" xmlns:xlink="http://www.w3.org/1999/xlink"><path d="M332.02176 212.91008c6.61504 9.33888 9.70752 20.70528 8.76544 32.11264h6.79936c0-30.65856 17.03936-44.27776 37.94944-44.27776V193.9456c-19.456 0.49152-36.9664-13.12768-36.9664-43.78624V143.36h-7.29088v6.79936c0 30.65856-17.03936 44.27776-37.94944 44.27776v6.79936a36.47488 36.47488 0 0 1 28.69248 11.6736z m-46.6944 227.14368h9.728c0-34.52928 11.6736-68.096 62.2592-69.05856v-9.23648a58.85952 58.85952 0 0 1-62.2592-68.096v-9.728h-9.728v9.728c0 43.76576-24.7808 68.096-59.33056 68.096v10.19904c53.49376 0 59.33056 24.33024 59.33056 68.096zM901.12 386.56c0.24576-128.67584-103.85408-233.18528-232.52992-233.43104a232.98048 232.98048 0 0 0-159.98976 63.1808l329.27744 329.3184A232.01792 232.01792 0 0 0 901.12 386.53952zM185.63072 733.36832a97.28 97.28 0 0 0-23.3472 110.8992v6.32832L122.88 893.39904 151.08096 921.6l40.38656-40.36608a97.28 97.28 0 0 0 114.7904 0l11.18208-8.27392L573.27616 649.216l-158.55616-158.55616-229.08928 242.688z m655.6672-115.77344v-9.728h-10.71104v9.728c0 43.78624-24.30976 68.096-54.4768 68.096h-4.85376v10.71104h4.85376c30.16704 0 54.4768 24.30976 54.4768 68.096h9.728c0-43.78624 24.33024-68.096 54.4768-68.096H901.12v-10.71104h-4.87424c-30.63808 0-54.94784-24.30976-54.94784-68.096zM475.99616 253.76768a231.5264 231.5264 0 0 0-32.09216 194.56l160.99328 161.97632c66.39616 18.8416 137.728 7.0656 194.56-32.11264l-323.46112-324.4032z" fill="#1296db" p-id="4062"></path></svg>