<?xml version="1.0" standalone="no"?><!DOCTYPE svg PUBLIC "-//W3C//DTD SVG 1.1//EN" "http://www.w3.org/Graphics/SVG/1.1/DTD/svg11.dtd"><svg t="1709566312646" class="icon" viewBox="0 0 1024 1024" version="1.1" xmlns="http://www.w3.org/2000/svg" p-id="4780" width="24" height="24" xmlns:xlink="http://www.w3.org/1999/xlink"><path d="M225.28 552.96h573.44c45.056 0 81.92 36.864 81.92 81.92v122.88c0 45.056-36.864 81.92-81.92 81.92H225.28c-45.056 0-81.92-36.864-81.92-81.92v-122.88c0-45.056 36.864-81.92 81.92-81.92z" fill="#304ECE" p-id="4781"></path><path d="M733.184 411.648l-63.488 51.2C630.784 417.792 573.44 389.12 512 389.12s-118.784 26.624-157.696 73.728L290.816 409.6c55.296-63.488 135.168-102.4 221.184-102.4 86.016 0 167.936 38.912 221.184 104.448z m124.928-104.448l-63.488 53.248C727.04 274.432 622.592 225.28 512 225.28s-212.992 49.152-282.624 133.12l-63.488-53.248C249.856 202.752 376.832 143.36 512 143.36c135.168 0 262.144 61.44 346.112 163.84z" fill="#304ECE" p-id="4782"></path></svg>