<?xml version="1.0" standalone="no"?><!DOCTYPE svg PUBLIC "-//W3C//DTD SVG 1.1//EN" "http://www.w3.org/Graphics/SVG/1.1/DTD/svg11.dtd"><svg t="1709566084172" class="icon" viewBox="0 0 1051 1024" version="1.1" xmlns="http://www.w3.org/2000/svg" p-id="3505" width="24.6328125" height="24" xmlns:xlink="http://www.w3.org/1999/xlink"><path d="M537.398857 788.114286H198.701714a35.556571 35.556571 0 0 1-34.532571-28.141715L66.029714 325.741714C31.652571 325.083429 4.059429 296.228571 4.059429 260.772571c0-35.858286 28.653714-64.813714 63.597714-64.813714 34.998857 0 63.341714 29.110857 63.341714 65.014857a67.291429 67.291429 0 0 1-5.586286 26.624l188.086858 86.491429 161.014857-256a65.526857 65.526857 0 0 1-26.870857-53.12c0-35.913143 28.342857-64.969143 63.341714-64.969143 34.944 0 63.286857 29.056 63.286857 65.014857a65.627429 65.627429 0 0 1-27.273143 53.44l145.005714 255.789714 206.336-87.862857a66.944 66.944 0 0 1-5.028571-25.6c0-35.867429 28.342857-64.969143 63.332571-64.969143 34.953143 0 63.296 29.101714 63.296 65.005715 0 35.867429-28.342857 64.914286-63.296 64.914285h-1.005714l-44.955428 198.4a279.369143 279.369143 0 0 0-373.339429 264.036572l0.054857-0.054857z m30.427429 126.070857L205.513143 914.285714a35.812571 35.812571 0 0 1-35.456-36.370285c0-20.114286 15.798857-36.315429 35.456-36.315429l337.115428-0.100571a277.558857 277.558857 0 0 0 25.197715 72.685714z m20.361143-126.884572c0-126.235429 102.336-228.571429 228.571428-228.571428s228.571429 102.336 228.571429 228.571428-102.336 228.571429-228.571429 228.571429-228.571429-102.336-228.571428-228.571429zM805.586286 694.857143L706.898286 803.254857a23.771429 23.771429 0 0 0-6.098286 22.034286 21.485714 21.485714 0 0 0 14.784 16.256 19.300571 19.300571 0 0 0 20.114286-6.701714l66.486857-72.987429v172.946286c0 12.251429 9.042286 22.198857 20.214857 22.198857 11.126857-0.146286 20.114286-10.002286 20.214857-22.198857v-172.891429l66.541714 72.987429c3.657143 4.077714 8.886857 6.4 14.372572 6.4 5.595429 0 10.88-2.550857 14.372571-6.912 3.776-4.242286 5.851429-9.718857 5.851429-15.387429a23.369143 23.369143 0 0 0-5.851429-15.798857L836.48 692.214857a19.2 19.2 0 0 0-14.226286-6.445714 19.254857 19.254857 0 0 0-14.217143 6.491428l-2.386285 2.697143L805.577143 694.857143z" fill="#4B83FF" p-id="3506"></path></svg>