<?xml version="1.0" standalone="no"?><!DOCTYPE svg PUBLIC "-//W3C//DTD SVG 1.1//EN" "http://www.w3.org/Graphics/SVG/1.1/DTD/svg11.dtd"><svg t="1709564304403" class="icon" viewBox="0 0 1024 1024" version="1.1" xmlns="http://www.w3.org/2000/svg" p-id="2056" width="24" height="24" xmlns:xlink="http://www.w3.org/1999/xlink"><path d="M146.285714 512a582.972952 582.972952 0 0 0 154.368 395.910095 487.399619 487.399619 0 0 1 0-791.82019A583.021714 583.021714 0 0 0 146.285714 512z" fill="#504BFF" opacity=".1" p-id="2057"></path><path d="M768.816762 926.47619H963.047619a36.571429 36.571429 0 0 1 0 73.142858H548.571429a36.656762 36.656762 0 0 1-7.899429-0.902096C531.175619 999.265524 521.630476 999.619048 512 999.619048a487.69219 487.69219 0 1 1 256.816762-73.142858zM512 97.52381a414.47619 414.47619 0 1 0 414.47619 414.47619A414.47619 414.47619 0 0 0 512 97.52381z" fill="#504BFF" p-id="2058"></path><path d="M707.047619 633.904762a121.904762 121.904762 0 1 1 121.904762-121.904762 121.904762 121.904762 0 0 1-121.904762 121.904762z m0-170.666667a48.761905 48.761905 0 1 0 48.761905 48.761905 48.761905 48.761905 0 0 0-48.761905-48.761905z m-195.047619-24.380952a121.904762 121.904762 0 1 1 121.904762-121.904762 121.904762 121.904762 0 0 1-121.904762 121.904762z m0-170.666667a48.761905 48.761905 0 1 0 48.761905 48.761905 48.761905 48.761905 0 0 0-48.761905-48.761905z m-73.142857 243.809524a121.904762 121.904762 0 1 1-121.904762-121.904762 121.904762 121.904762 0 0 1 121.904762 121.904762z m-121.904762-48.761905a48.761905 48.761905 0 1 0 48.761905 48.761905 48.761905 48.761905 0 0 0-48.761905-48.761905z m195.047619 121.904762a121.904762 121.904762 0 1 1-121.904762 121.904762 121.904762 121.904762 0 0 1 121.904762-121.904762z m0 170.666667a48.761905 48.761905 0 1 0-48.761905-48.761905 48.761905 48.761905 0 0 0 48.761905 48.761905z" fill="#F469FD" p-id="2059"></path></svg>