<?xml version="1.0" standalone="no"?><!DOCTYPE svg PUBLIC "-//W3C//DTD SVG 1.1//EN" "http://www.w3.org/Graphics/SVG/1.1/DTD/svg11.dtd"><svg t="1709568767784" class="icon" viewBox="0 0 1024 1024" version="1.1" xmlns="http://www.w3.org/2000/svg" p-id="14562" width="24" height="24" xmlns:xlink="http://www.w3.org/1999/xlink"><path d="M729.9 267.5c-0.4-16.3-13.6-29.3-29.9-29.4-16.1 0.4-28.8 13.8-28.5 29.9l5.3 320c0.6 14.6 12.1 26.3 26.7 27.1h3.5c15.7-0.3 28.1-13.2 28-28.9l-5.1-318.7z" fill="#d4237a" p-id="14563" data-spm-anchor-id="a313x.search_index.0.i28.51fc3a81GyxaYN" class="selected"></path><path d="M975.1 451.8l-2.2-2.6c-7.6-9-15.5-18.3-23.7-28.9-5.3-6.8-10.6-13.7-16.5-20.9-49.7-44.3-61.6-117.4-28.6-175.3 15.3-31.6 13.3-68.9-5.2-98.8-43-62.6-156.2-64.6-169.9-64.6-6.1 0.4-12 2.6-16.8 6.4l-690 509.1c-5.2 1-10 3.6-13.8 7.2-5.3 5.3-8.4 12.7-8.4 20.4v117.4c0.2 58 47.2 105 105.2 105.2h804.4c58-0.1 105-47.2 105-105.2V606.9c21.5-54.8 5.6-117.3-39.5-155.1m-18.9 181.4v88.5c0 25.8-21 46.7-46.8 46.7H105.2c-25.8 0-46.7-20.9-46.8-46.7v-88.4l897.8-0.1z m-834.6-59l617.5-454.4c32 1.7 93.4 11.6 111.7 38.4 7.4 13.5 7.4 29.8 0 43.3-42 77.9-26.6 174.3 37.6 235.2 5.1 6.4 10.2 12.5 15 18.8 9.2 12 17.9 22.1 25.6 31.1l2.1 2.4c28.9 33.4 40.9 49.3 32 85.1l-841.5 0.1z" fill="#1296db" p-id="14564"></path><path d="M929.2 770.9h-63.3c-14.6 0.1-26.4 11.9-26.6 26.6v118.3c0.2 26.1 21.3 47.1 47.4 47.3h22.1c25.9-0.3 46.9-21.4 47.1-47.3V797.4c-0.1-14.6-11.9-26.4-26.6-26.5m-13.7 150.8l-6.4 1.2H881l-1.2-6.4V811.3h35.6l0.2 110.4zM494.1 770.9h-63.3c-14.6 0.1-26.4 11.9-26.5 26.6v118.3c0.2 26 21.2 47.1 47.3 47.3h22c25.9-0.3 46.8-21.4 47-47.3V797.4c0-14.6-11.8-26.5-26.5-26.5m-13.6 150.7l-6.1 1.2H446l-1.2-6.4V811.3h35.6l0.1 110.3zM188.4 770.9h-63.2c-14.6 0.1-26.4 11.9-26.5 26.6v118.3c0.2 26 21.2 47.1 47.3 47.3h22.1c25.9-0.3 46.8-21.4 46.9-47.3V797.4c-0.1-14.6-11.9-26.4-26.6-26.5m-13.5 150.7l-6.1 1.2h-28.4l-1.2-6.4V811.3h35.6v110.3z" fill="#1296db" p-id="14565"></path></svg>