<?xml version="1.0" standalone="no"?><!DOCTYPE svg PUBLIC "-//W3C//DTD SVG 1.1//EN" "http://www.w3.org/Graphics/SVG/1.1/DTD/svg11.dtd"><svg t="1709566352792" class="icon" viewBox="0 0 1024 1024" version="1.1" xmlns="http://www.w3.org/2000/svg" p-id="4980" width="24" height="24" xmlns:xlink="http://www.w3.org/1999/xlink"><path d="M671.288889 443.733333C568.888889 329.955556 568.888889 193.422222 568.888889 0 251.259259 125.155556 329.955556 466.488889 318.577778 580.266667c-79.644444-68.266667-102.4-227.555556-102.4-227.555556C126.103704 398.222222 80.592593 512 80.592593 603.022222c0 227.555556 193.422222 420.977778 431.407407 420.977778S943.407407 841.955556 943.407407 603.022222C943.407407 466.488889 841.007407 398.222222 841.007407 216.177778c-146.962963 45.511111-169.718519 159.288889-169.718518 227.555555z" fill="#DD3229" p-id="4981"></path><path d="M502.518519 540.444444c152.651852 57.837037 117.57037 219.97037 117.57037 265.481482 35.081481-35.081481 46.459259-104.296296 46.459259-104.296296 35.081481 22.755556 58.785185 69.214815 58.785185 115.674074 0 104.296296-93.866667 196.266667-199.111111 196.266666s-199.111111-92.918519-199.111111-196.266666C338.488889 713.955556 502.518519 633.362963 502.518519 540.444444z" fill="#EBBB0E" p-id="4982"></path></svg>