<?xml version="1.0" standalone="no"?><!DOCTYPE svg PUBLIC "-//W3C//DTD SVG 1.1//EN" "http://www.w3.org/Graphics/SVG/1.1/DTD/svg11.dtd"><svg t="1709567772253" class="icon" viewBox="0 0 1024 1024" version="1.1" xmlns="http://www.w3.org/2000/svg" p-id="53390" width="24" height="24" xmlns:xlink="http://www.w3.org/1999/xlink"><path d="M512 128a384 384 0 1 0 384 384 384 384 0 0 0-384-384z m24.96 472.32l-75.52 73.6L384 598.4 313.6 526.08 389.12 448l72.32 74.88 174.72-172.8 75.52 75.52z" fill="#3296FC" p-id="53391"></path><path d="M520.32 502.4m-265.6 0a265.6 265.6 0 1 0 531.2 0 265.6 265.6 0 1 0-531.2 0Z" fill="#3296FC" p-id="53392"></path><path d="M531.2 209.28v33.28Q682.24 256 679.68 384H576q-3.84-69.76-44.8-72.96v132.48q161.92 30.08 159.36 142.72-10.88 128-159.36 142.72v27.52h-38.4v-27.52Q333.44 723.84 333.44 576H435.2q0 74.24 57.6 80v-128Q327.68 501.12 338.56 384A154.88 154.88 0 0 1 492.8 242.56v-33.28z m-38.4 222.72V311.04q-40.96 0-44.16 64a54.4 54.4 0 0 0 44.16 56.96z m38.4 107.52v118.4a51.2 51.2 0 0 0 49.28-57.6 56.32 56.32 0 0 0-49.28-60.8z" fill="#FFFFFF" p-id="53393"></path></svg>