<?xml version="1.0" standalone="no"?><!DOCTYPE svg PUBLIC "-//W3C//DTD SVG 1.1//EN" "http://www.w3.org/Graphics/SVG/1.1/DTD/svg11.dtd"><svg t="1709567802853" class="icon" viewBox="0 0 1024 1024" version="1.1" xmlns="http://www.w3.org/2000/svg" p-id="54465" data-spm-anchor-id="a313x.search_index.0.i109.5a4d3a81ZpQ7dH" width="24" height="24" xmlns:xlink="http://www.w3.org/1999/xlink"><path d="M812.8 687.104c-25.856 0-51.968-9.984-71.68-29.696L698.88 615.168c-12.032-12.032-12.032-31.488 0-43.52 12.032-12.032 31.488-12.032 43.52 0l42.24 42.24c15.616 15.616 40.96 15.616 56.576 0 15.616-15.616 15.616-40.96 0-56.576l-258.56-258.048c-12.032-12.032-12.032-31.488 0-43.52 12.032-12.032 31.488-12.032 43.52 0l258.304 258.304c39.424 39.424 39.424 103.936 0 143.36-19.712 19.968-45.824 29.696-71.68 29.696zM554.24 968.704c-24.32 0-48.384-9.216-66.816-27.648L107.52 561.152C-5.888 447.744-5.888 262.912 107.52 149.248c113.664-113.664 298.496-113.664 411.904 0 12.032 12.032 12.032 31.488 0 43.52-12.032 12.032-31.488 12.032-43.52 0-43.52-43.52-101.12-67.328-162.56-67.328S194.56 149.248 151.04 192.768c-89.6 89.6-89.6 235.52 0 325.12l379.648 379.648c13.056 13.056 34.048 13.056 46.848 0 6.144-6.144 9.728-14.592 9.728-23.552s-3.328-17.152-9.728-23.552L550.4 823.296c-12.032-12.032-12.032-31.488 0-43.52 12.032-12.032 31.488-12.032 43.52 0l27.136 27.136c17.92 17.92 27.648 41.728 27.648 66.816s-9.728 49.152-27.648 66.816c-18.432 18.944-42.752 28.16-66.816 28.16z" fill="#1296db" p-id="54466" data-spm-anchor-id="a313x.search_index.0.i110.5a4d3a81ZpQ7dH" class="selected"></path><path d="M892.928 567.552c-7.936 0-15.616-3.072-21.76-8.96-12.032-12.032-12.032-31.488 0-43.52 89.6-89.6 89.6-235.52 0-325.12s-235.52-89.6-325.12 0l-127.232 127.232c13.568 10.496 29.952 16.128 47.36 16.128 20.736 0 40.448-8.192 55.04-22.784l56.576-56.576c12.032-12.032 31.488-12.032 43.52 0 12.032 12.032 12.032 31.488 0 43.52l-56.576 56.576c-26.368 26.368-61.184 40.704-98.56 40.704-37.12 0-72.192-14.592-98.56-40.704l-35.84-36.608 171.008-171.008c113.664-113.664 298.496-113.664 411.904 0 113.664 113.664 113.664 298.496 0 411.904-5.888 6.144-13.824 9.216-21.76 9.216zM644.864 879.104c-24.064 0-48.384-9.216-66.816-27.648l-10.496-10.496c-12.032-12.032-12.032-31.488 0-43.52 12.032-12.032 31.488-12.032 43.52 0l10.496 10.496c12.8 12.8 33.792 12.8 46.592 0s12.8-33.792 0-46.592l-45.568-45.568c-12.032-12.032-12.032-31.488 0-43.52 12.032-12.032 31.488-12.032 43.52 0l45.568 45.568c36.864 36.864 36.864 96.768 0 133.632-18.432 18.432-42.496 27.648-66.816 27.648z" fill="#1296db" p-id="54467" data-spm-anchor-id="a313x.search_index.0.i108.5a4d3a81ZpQ7dH" class="selected"></path><path d="M726.528 781.312c-24.832 0-48.384-9.728-65.792-27.392l-11.52-11.52c-12.032-12.032-12.032-31.488 0-43.52 12.032-12.032 31.488-12.032 43.52 0l11.52 11.52c5.888 5.888 14.08 9.216 22.528 9.216 8.448 0 16.384-3.328 22.528-9.216 12.288-12.288 12.288-32.512 0-44.8l-38.4-38.4c-12.032-12.032-12.032-31.488 0-43.52 12.032-12.032 31.488-12.032 43.52 0l38.4 38.4c36.352 36.352 36.352 95.488 0 131.84-18.176 17.92-41.472 27.392-66.304 27.392z" fill="#1296db" p-id="54468" data-spm-anchor-id="a313x.search_index.0.i111.5a4d3a81ZpQ7dH" class="selected"></path></svg>