<?xml version="1.0" standalone="no"?><!DOCTYPE svg PUBLIC "-//W3C//DTD SVG 1.1//EN" "http://www.w3.org/Graphics/SVG/1.1/DTD/svg11.dtd"><svg t="1709566796565" class="icon" viewBox="0 0 1024 1024" version="1.1" xmlns="http://www.w3.org/2000/svg" p-id="10102" width="24" height="24" xmlns:xlink="http://www.w3.org/1999/xlink"><path d="M182.8352 492.1856h672.5632v284.3136H182.8352z" fill="#CAE2FF" p-id="10103"></path><path d="M949.504 443.8016h-870.4a30.72 30.72 0 1 0 0 61.44h61.44v216.3712a96.1024 96.1024 0 0 0 91.4944 95.8464v64.9216a30.72 30.72 0 0 0 61.44 0V817.664h439.2448v64.7168a30.72 30.72 0 0 0 61.44 0V817.664h4.5568a96.2048 96.2048 0 0 0 96.1024-96.0512V505.2416h54.8864a30.72 30.72 0 0 0 0-61.44z m-116.3264 277.8112a34.6624 34.6624 0 0 1-34.4576 34.6112H236.4416a34.6624 34.6624 0 0 1-34.6624-34.6112V505.2416h631.3984zM78.8992 319.6416h61.44v30.0544a64.1024 64.1024 0 0 0 64.0512 64.0512h24.832A64.1024 64.1024 0 0 0 293.2736 349.696v-30.0544h30.1056v30.0544a64.1024 64.1024 0 0 0 64.0512 64.0512h24.832A64.1024 64.1024 0 0 0 476.16 349.696v-30.0544h28.7744v30.0544a64.1024 64.1024 0 0 0 64.0512 64.0512H593.92a64.1024 64.1024 0 0 0 64.1024-64.0512v-30.0544h291.4816a30.72 30.72 0 0 0 0-61.44h-291.4816v-30.1056A64.1536 64.1536 0 0 0 593.92 163.84h-24.832a64.1536 64.1536 0 0 0-64 64.256v30.1056H476.16v-30.1056A64.1536 64.1536 0 0 0 412.2624 163.84h-24.832a64.1536 64.1536 0 0 0-64.0512 64.256v30.1056h-30.1056v-30.1056A64.1536 64.1536 0 0 0 229.2224 163.84h-24.832a64.1536 64.1536 0 0 0-64.0512 64.256v30.1056h-61.44a30.72 30.72 0 0 0 0 61.44z m487.6288-91.5456a2.6112 2.6112 0 0 1 2.6112-2.6112H593.92a2.6112 2.6112 0 0 1 2.6112 2.6112V349.696a2.6112 2.6112 0 0 1-2.6112 2.6112h-24.832a2.6112 2.6112 0 0 1-2.6112-2.6112z m-181.7088 0a2.6112 2.6112 0 0 1 2.6112-2.6112h24.832a2.6112 2.6112 0 0 1 2.6112 2.6112V349.696a2.6112 2.6112 0 0 1-2.6112 2.6112h-24.832a2.6112 2.6112 0 0 1-2.6112-2.6112z m-183.04 0a2.6112 2.6112 0 0 1 2.6112-2.6112h24.832a2.6112 2.6112 0 0 1 2.6112 2.6112V349.696a2.6112 2.6112 0 0 1-2.6112 2.6112h-24.832a2.6112 2.6112 0 0 1-2.6112-2.6112z" fill="#5866D2" p-id="10104"></path></svg>