<?xml version="1.0" standalone="no"?><!DOCTYPE svg PUBLIC "-//W3C//DTD SVG 1.1//EN" "http://www.w3.org/Graphics/SVG/1.1/DTD/svg11.dtd"><svg t="1709566456390" class="icon" viewBox="0 0 1024 1024" version="1.1" xmlns="http://www.w3.org/2000/svg" p-id="5761" width="24" height="24" xmlns:xlink="http://www.w3.org/1999/xlink"><path d="M755.52 853.39H274.55c-53.04 0-96.2-43.15-96.2-96.2V276.22c0-53.04 43.15-96.2 96.2-96.2h480.97c53.04 0 96.2 43.15 96.2 96.2V757.2c0 53.04-43.15 96.19-96.2 96.19zM274.55 224.42c-28.56 0-51.8 23.24-51.8 51.8V757.2c0 28.56 23.24 51.8 51.8 51.8h480.97c28.56 0 51.8-23.24 51.8-51.8V276.22c0-28.56-23.24-51.8-51.8-51.8H274.55z" fill="#108EE9" p-id="5762"></path><path d="M408.21 396.71c-10.02-6.68-21.15-17.79-33.38-33.39-6.68-11.11-6.13-21.12 1.67-30.04 10.02-7.78 20.02-7.78 30.04 0 12.23 13.35 21.7 24.49 28.38 33.38 3.34 14.47 0 24.49-10.02 30.05h26.71c20.02 2.24 24.46 17.26 13.35 45.06-5.59 15.59-14.47 34.51-26.71 56.75-4.46 6.68-6.68 10.59-6.68 11.68v16.69c8.9-11.11 20.03-12.23 33.39-3.34 2.21 2.24 5.55 5.58 10.01 10.02 7.78 5.58 15.02 13.35 21.7 23.37 8.9 12.26 8.9 23.36 0 33.38-10.02 7.8-20.6 6.68-31.71-3.34-5.59-4.43-15.6-15.02-30.05-31.71 0 1.12-1.12 0-3.34-3.34v151.89c-1.12 11.11-8.35 17.23-21.7 18.35-14.47-1.12-22.27-7.25-23.36-18.35V570.29c-6.68 7.8-15.6 16.14-26.71 25.04-12.26 10.02-23.37 9.47-33.39-1.67-7.8-12.23-6.13-23.91 5.01-35.05 33.39-30.05 60.09-62.85 80.12-98.48 5.56-11.11 4.44-17.24-3.34-18.36h-61.76c-11.14-1.09-17.26-8.89-18.36-23.36 1.1-13.35 7.23-20.58 18.36-21.7h61.77z m155.23 21.7v-70.1c1.1-11.11 8.9-17.24 23.37-18.36 14.45 1.12 22.24 7.25 23.37 18.36v70.1h75.11c11.11 1.12 17.23 8.92 18.35 23.36-1.12 14.47-7.25 22.27-18.35 23.37h-75.11v198.62h78.44c14.45 1.12 22.25 8.35 23.37 21.7-1.12 13.35-8.92 20.57-23.37 21.7H473.31c-12.26-1.13-18.93-8.35-20.02-21.7 1.09-13.35 7.77-20.58 20.02-21.7h90.13V465.14h-71.77c-12.26-1.1-18.93-8.9-20.03-23.37 0-14.45 6.11-22.24 18.36-23.36h73.44z" fill="#108EE9" p-id="5763"></path></svg>