<?xml version="1.0" standalone="no"?><!DOCTYPE svg PUBLIC "-//W3C//DTD SVG 1.1//EN" "http://www.w3.org/Graphics/SVG/1.1/DTD/svg11.dtd"><svg t="1709568396594" class="icon" viewBox="0 0 1024 1024" version="1.1" xmlns="http://www.w3.org/2000/svg" p-id="6132" width="24" height="24" xmlns:xlink="http://www.w3.org/1999/xlink"><path d="M341.3504 541.0304a138.24 138.24 0 1 1 138.24-138.24 138.5472 138.5472 0 0 1-138.24 138.24z m0-245.76a107.52 107.52 0 1 0 107.52 107.52 107.52 107.52 0 0 0-107.52-107.7248zM682.6496 541.0304a138.24 138.24 0 1 1 138.24-138.24 138.5472 138.5472 0 0 1-138.24 138.24z m0-245.76a107.52 107.52 0 1 0 107.52 107.52 107.52 107.52 0 0 0-107.52-107.7248z" fill="#099DFD" p-id="6133"></path><path d="M122.88 759.6544a15.36 15.36 0 0 1-15.36-15.36 233.8816 233.8816 0 0 1 416.5632-146.176 15.36 15.36 0 1 1-23.9616 19.2A203.2128 203.2128 0 0 0 138.24 744.2944a15.36 15.36 0 0 1-15.36 15.36z" fill="#099DFD" p-id="6134"></path><path d="M901.12 759.6544a15.36 15.36 0 0 1-15.36-15.36 203.2128 203.2128 0 0 0-361.8816-126.976 15.36 15.36 0 1 1-23.9616-19.2A233.8816 233.8816 0 0 1 916.48 744.2944a15.36 15.36 0 0 1-15.36 15.36z" fill="#099DFD" p-id="6135"></path></svg>