<?xml version="1.0" standalone="no"?><!DOCTYPE svg PUBLIC "-//W3C//DTD SVG 1.1//EN" "http://www.w3.org/Graphics/SVG/1.1/DTD/svg11.dtd"><svg t="1709567086110" class="icon" viewBox="0 0 1024 1024" version="1.1" xmlns="http://www.w3.org/2000/svg" p-id="25027" width="24" height="24" xmlns:xlink="http://www.w3.org/1999/xlink"><path d="M759.296 442.368v138.752c0 10.24 4.608 19.456 12.288 26.112L865.28 686.08c14.336 12.288 35.84 10.752 48.128-3.584 5.12-6.144 8.192-14.336 8.192-22.528V363.52c0-18.944-15.36-34.304-33.792-34.304-8.192 0-15.872 3.072-22.528 8.192l-93.696 78.848c-7.68 6.656-12.288 16.384-12.288 26.112z" fill="#AEC9FF" p-id="25028"></path><path d="M674.304 256H153.6c-28.16 0-51.2 23.04-51.2 51.2v409.6c0 28.16 23.04 51.2 51.2 51.2h520.704c28.16 0 51.2-23.04 51.2-51.2V307.2c0-28.16-23.04-51.2-51.2-51.2zM221.696 426.496c-28.16 0-51.2-23.04-51.2-51.2s23.04-51.2 51.2-51.2 51.2 23.04 51.2 51.2c0 28.672-22.528 51.2-51.2 51.2z" fill="#3366FF" p-id="25029"></path></svg>