<?xml version="1.0" standalone="no"?><!DOCTYPE svg PUBLIC "-//W3C//DTD SVG 1.1//EN" "http://www.w3.org/Graphics/SVG/1.1/DTD/svg11.dtd"><svg t="1709567451057" class="icon" viewBox="0 0 1024 1024" version="1.1" xmlns="http://www.w3.org/2000/svg" p-id="41973" width="24" height="24" xmlns:xlink="http://www.w3.org/1999/xlink"><path d="M471.9 295.7h125.7v50H471.9zM471.9 389.3h125.7v50H471.9z" fill="#FFB3A7" p-id="41974"></path><path d="M858.8 548.9c-42.5-42.5-99-65.9-159.1-65.9h-95V252h20c13.8 0 25-11.2 25-25V127c0-13.8-11.2-25-25-25h-500c-13.8 0-25 11.2-25 25v100c0 13.8 11.2 25 25 25h20v606c0 13.8 11.2 25 25 25h730c13.8 0 25-11.2 25-25V708c0-60.1-23.4-116.6-65.9-159.1zM149.7 152h450v50h-450v-50z m550 381c96.5 0 175 78.5 175 175v35h-680V252h360v256c0 13.8 11.2 25 25 25h120z m175 300h-680v-40h680v40z" fill="#F96C55" p-id="41975"></path></svg>