<?xml version="1.0" standalone="no"?><!DOCTYPE svg PUBLIC "-//W3C//DTD SVG 1.1//EN" "http://www.w3.org/Graphics/SVG/1.1/DTD/svg11.dtd"><svg t="1709567480108" class="icon" viewBox="0 0 1024 1024" version="1.1" xmlns="http://www.w3.org/2000/svg" p-id="43201" width="24" height="24" xmlns:xlink="http://www.w3.org/1999/xlink"><path d="M95.2832 69.0176A34.133333 34.133333 0 0 1 135.168 92.791467l0.6144 2.474666 31.146667 145.954134h707.242666a68.266667 68.266667 0 0 1 68.181334 64.853333l0.085333 3.413333a68.266667 68.266667 0 0 1-1.962667 16.247467l-1.092266 3.9424-120.439467 388.693333a68.266667 68.266667 0 0 1-61.6448 47.9744l-3.566933 0.1024H264.4992a68.266667 68.266667 0 0 1-65.962667-50.688l-0.802133-3.328L69.0176 109.5168a34.133333 34.133333 0 0 1 26.2656-40.4992z m778.888533 240.469333H181.504l82.9952 388.693334h489.233067l120.439466-388.693334z" fill="#1296db" p-id="43202" data-spm-anchor-id="a313x.search_index.0.i74.5a4d3a81ZpQ7dH" class="selected"></path><path d="M762.368 868.522667a51.2 51.2 0 1 1-102.4 0.017066 51.2 51.2 0 0 1 102.4 0M374.954667 868.522667a51.2 51.2 0 1 1-102.382934 0.017066 51.2 51.2 0 0 1 102.4 0" fill="#1296db" p-id="43203" data-spm-anchor-id="a313x.search_index.0.i75.5a4d3a81ZpQ7dH" class="selected"></path><path d="M699.733333 563.2v34.133333a34.133333 34.133333 0 0 1-34.133333 34.133334H358.4a34.133333 34.133333 0 0 1-34.133333-34.133334v-34.133333h375.466666z" fill="#00B386" p-id="43204"></path></svg>