<?xml version="1.0" standalone="no"?><!DOCTYPE svg PUBLIC "-//W3C//DTD SVG 1.1//EN" "http://www.w3.org/Graphics/SVG/1.1/DTD/svg11.dtd"><svg t="1709567185019" class="icon" viewBox="0 0 1024 1024" version="1.1" xmlns="http://www.w3.org/2000/svg" p-id="29334" width="24" height="24" xmlns:xlink="http://www.w3.org/1999/xlink"><path d="M870 62.9c23.2 0 43.5 7.7 60.8 23.1s26.1 34.7 26.1 57.9c0 20.9-7.5 45.9-22.4 75-110 208.3-187 332.8-231 373.6-32.1 30.1-68.2 45.2-108.3 45.2-41.7 0-77.6-15.3-107.5-46-30-30.6-45-67-45-109 0-42.4 15.2-77.5 45.7-105.3l317-287.7c19.5-17.9 41.1-26.8 64.6-26.8M418.5 576.5c12.9 25.2 30.6 46.7 52.9 64.6 22.3 17.9 47.3 30.5 74.8 37.8l0.5 35.3c1.3 70.5-20.1 128-64.3 172.4-44.2 44.4-101.9 66.6-173.1 66.6-40.7 0-76.8-7.7-108.3-23.1-31.5-15.4-56.7-36.5-75.7-63.3-19-26.8-33.4-57.1-43-90.9-9.6-33.8-14.4-70.2-14.4-109.3 2.3 1.7 9.1 6.6 20.3 14.9 11.2 8.3 21.5 15.6 30.8 22.1 9.3 6.5 19.1 12.5 29.3 18.1 10.3 5.6 17.9 8.4 22.8 8.5 13.6 0 22.7-6.1 27.3-18.4 8.3-21.9 17.8-40.5 28.5-55.9 10.8-15.4 22.3-28 34.5-37.8 12.3-9.8 26.8-17.7 43.7-23.6 16.9-5.9 34-10.2 51.2-12.7 17.3-2.5 38-4.3 62.2-5.3z" p-id="29335" data-spm-anchor-id="a313x.search_index.0.i45.5a4d3a81ZpQ7dH" class="" fill="#2c2c2c"></path></svg>