<?xml version="1.0" standalone="no"?><!DOCTYPE svg PUBLIC "-//W3C//DTD SVG 1.1//EN" "http://www.w3.org/Graphics/SVG/1.1/DTD/svg11.dtd"><svg t="1709566908137" class="icon" viewBox="0 0 1024 1024" version="1.1" xmlns="http://www.w3.org/2000/svg" p-id="13952" width="24" height="24" xmlns:xlink="http://www.w3.org/1999/xlink"><path d="M675.4 363.5c0 47.4-38.4 85.9-85.9 85.9-47.4 0-85.9-38.4-85.9-85.9 0-47.4 38.4-85.9 85.9-85.9 47.5 0.1 85.9 38.5 85.9 85.9z" fill="#DD4238" p-id="13953"></path><path d="M589.5 181.1c-112.5 0-203.9 91.4-203.9 203.9S477 588.9 589.5 588.9s204-91.4 204-203.9-91.5-203.9-204-203.9z m0 311.2c-71 0-128.8-57.7-128.8-128.8s57.7-128.8 128.8-128.8 128.8 57.7 128.8 128.8-57.7 128.8-128.8 128.8z" fill="#DD4238" p-id="13954"></path><path d="M589.5 63C388 63 224.6 226.4 224.6 427.9S388 792.8 589.5 792.8s364.9-163.3 364.9-364.9S791.1 63 589.5 63z m0 590.3c-147.9 0-268.3-120.4-268.3-268.3s120.4-268.3 268.3-268.3S857.9 237.1 857.9 385 737.4 653.3 589.5 653.3z" fill="#DD4238" p-id="13955"></path><path d="M78.6 949.6C66 937 66 916.6 78.6 904l182.1-182.1c12.6-12.6 33-12.6 45.5 0 12.6 12.6 12.6 33 0 45.5L124.1 949.6c-12.5 12.5-32.9 12.5-45.5 0z" fill="#3E6493" p-id="13956"></path></svg>