<?xml version="1.0" standalone="no"?><!DOCTYPE svg PUBLIC "-//W3C//DTD SVG 1.1//EN" "http://www.w3.org/Graphics/SVG/1.1/DTD/svg11.dtd"><svg t="1709567007625" class="icon" viewBox="0 0 1030 1024" version="1.1" xmlns="http://www.w3.org/2000/svg" p-id="21381" width="24.140625" height="24" xmlns:xlink="http://www.w3.org/1999/xlink"><path d="M488.5091 679.618308l-194.622982 119.456977 43.831522 35.101973 161.083138-99.79252-10.291678-54.76643zM922.781156 469.098359L815.177987 411.39145l-320.236588 274.751047 10.383568 54.76643 433.904496-244.059793-16.448307-27.750775z" fill="#BDDDFA" p-id="21382"></path><path d="M29.151079 942.699327a157.22376 157.22376 0 0 0 191.958173-23.615725l124.051476-98.046611-38.961352-38.961352-124.051476 98.046611a157.49943 157.49943 0 0 1-165.401968 36.204653" fill="#BDDDFA" p-id="21383"></path><path d="M286.718699 866.614422l-58.901478 47.231451-3.30804 3.308039-3.032369 3.03237a82.710173 82.710173 0 1 1-117.159727-116.792168l3.032369-3.032369 2.84859-3.675599 47.04767-59.544709 130.208105 130.208105m109.716639 5.789069L150.813416 626.689679 52.491135 751.016825a156.21297 156.21297 0 1 0 220.535957 220.535957l124.143366-98.414171z" fill="#0788FF" p-id="21384"></path><path d="M133.262429 654.440453L529.951482 0.18378a73.511986 73.511986 0 0 1 24.718406 101.07898l-358.370931 591.587706zM369.327793 890.505818l654.440454-396.689054a73.511986 73.511986 0 0 0-101.078981-24.718405l-591.587705 358.370931zM200.966968 768.953749l534.94672-534.94672 51.982163 51.982163-534.94672 534.94672z" fill="#0788FF" p-id="21385"></path><path d="M334.77716 686.969507a13.783497 13.783497 0 0 1-4.043159-9.924118l1.929689-141.878133a13.783497 13.783497 0 0 1 3.03237-8.453878L594.64203 202.801191a13.783497 13.783497 0 0 1 13.783497-4.870169l167.791108 36.755993a13.783497 13.783497 0 0 1 10.475458 10.843017l36.755992 168.158668a13.783497 13.783497 0 0 1-4.870169 13.783497L495.033289 686.142497a13.783497 13.783497 0 0 1-8.453878 3.03237l-141.878133 1.929689a13.783497 13.783497 0 0 1-9.924118-4.135049z m25.361635-147.023972l-1.65402 123.316357 123.040687-1.47024 313.528619-250.859652-33.356064-150.79146-150.88335-33.356064z" fill="#0788FF" p-id="21386"></path><path d="M550.782941 72.041746l60.261451 135.225298-25.177856 11.210578-60.26145-135.20692zM272.200082 500.782025l92.634291 23.891395-6.891748 26.69404-92.625102-23.891395zM939.155951 496.867512l-135.216109-60.261451L815.177987 411.428206l135.20692 60.261451zM494.968966 757.044807l-23.891395-92.625102 26.69404-6.882559 23.891395 92.625102z" fill="#0788FF" p-id="21387"></path></svg>