<?xml version="1.0" standalone="no"?><!DOCTYPE svg PUBLIC "-//W3C//DTD SVG 1.1//EN" "http://www.w3.org/Graphics/SVG/1.1/DTD/svg11.dtd"><svg t="1709566128671" class="icon" viewBox="0 0 1024 1024" version="1.1" xmlns="http://www.w3.org/2000/svg" p-id="3899" width="24" height="24" xmlns:xlink="http://www.w3.org/1999/xlink"><path d="M739.91111078 943.28888922L562.84444478 498.48888922 79.64444478 399.28888922l75.733333-85.333334 590.933333-21.333333L816.71111078 856.88888922z" fill="#C7E7FF" p-id="3900"></path><path d="M128.71111078 407.82222222l-22.4-18.133333 65.066667-73.6 22.4 18.133333z" fill="#068BBF" p-id="3901"></path><path d="M163.91111078 358.75555522l-1.066666-27.733333 390.4-14.933333 1.066666 28.8z" fill="#068BBF" p-id="3902"></path><path d="M729.24444478 956.08888922c-2.133333-2.133333-4.266667-4.266667-5.333334-6.4L550.04444478 513.42222222 76.44444478 416.35555522c-6.4-1.066667-10.666667-5.333333-12.8-11.733333-2.133333-5.333333-1.066667-11.733333 3.2-17.066667l75.733333-85.333333c3.2-3.2 7.466667-5.333333 12.8-6.4l589.866667-21.333333c9.6 0 17.066667 6.4 18.133333 14.933333l70.4 565.333333c1.066667 4.266667-1.066667 9.6-4.266667 12.8L753.77777778 952.88888922c-4.266667 4.266667-10.666667 6.4-17.066667 5.333333-2.133333 1.066667-5.333333 0-7.466666-2.133333zM574.57777778 485.68888922c2.133333 2.133333 4.266667 4.266667 5.333333 6.4L746.31111078 910.22222222l51.2-58.666667-67.2-541.866666-566.4 20.266666-51.2 58.666667 454.4 92.8c2.133333 1.066667 5.333333 2.133333 7.466667 4.266667z" fill="" p-id="3903"></path><path d="M461.51111078 751.28888922L327.11111078 640.35555522l381.866667-496c46.933333-53.333333 130.133333-59.733333 184.533333-13.866666 55.466667 45.866667 61.866667 124.8 26.666667 166.4l-458.666667 454.4z" fill="#1296db" p-id="3904" data-spm-anchor-id="a313x.manage_type_myprojects.0.i42.44e93a812dN99l" class="selected"></path><path d="M909.51111078 145.42222222c-4.266667-5.333333-9.6-10.666667-16-14.933333C839.11111078 84.62222222 753.77777778 94.22222222 706.84444478 146.48888922l-384 498.133333 34.133333 27.733333 384-498.133333c41.6-46.933333 115.2-59.733333 168.533333-28.8z" fill="#068BBF" p-id="3905"></path><path d="M406.04444478 928.35555522l-69.333334-168.533333-183.466666-39.466667 56.533333-64 117.333333-16L460.44444478 750.22222222l2.133333 113.066667z" fill="#C7E7FF" p-id="3906"></path><path d="M195.91111078 732.08888922l-22.4-18.133334 65.066667-73.6 23.466667 18.133334z" fill="#068BBF" p-id="3907"></path><path d="M224.71111078 694.75555522l-4.266666-28.8 130.133333-17.066666 3.2 27.733333z" fill="#068BBF" p-id="3908"></path><path d="M394.31111078 941.15555522c-2.133333-2.133333-4.266667-4.266667-5.333333-6.4l-66.133333-160-173.866667-37.333333c-6.4-1.066667-10.666667-5.333333-12.8-11.733333-2.133333-5.333333-1.066667-11.733333 3.2-17.066667l57.6-64c3.2-3.2 6.4-5.333333 10.666667-5.333333l116.266666-14.933334c5.333333-1.066667 9.6 1.066667 13.866667 4.266667l133.333333 109.866667c4.266667 3.2 6.4 7.466667 6.4 12.8l2.133334 113.066666c0 4.266667-1.066667 8.533333-4.266667 11.733334l-57.6 64c-4.266667 4.266667-10.666667 6.4-16 5.333333-2.133333-1.066667-5.333333-2.133333-7.466667-4.266667zM348.44444478 747.02222222c2.133333 2.133333 4.266667 4.266667 5.333333 6.4L412.44444478 895.28888922l33.066666-37.333334-2.133333-99.2-121.6-100.266666-102.4 13.866666-33.066667 37.333334 154.666667 33.066666c2.133333 1.066667 4.266667 2.133333 7.466667 4.266667z" fill="" p-id="3909"></path><path d="M813.51111078 376.88888922L471.11111078 715.02222222c-6.4 6.4-17.066667 6.4-24.533333 1.066667l-83.2-68.266667c-7.466667-5.333333-8.533333-16-3.2-23.466667l362.666667-469.333333c40.533333-45.866667 112-51.2 160-11.733333s53.333333 107.733333 12.8 153.6L858.31111078 334.22222222c-7.466667 6.4-6.4 18.133333 0 24.533333 7.466667 6.4 18.133333 6.4 24.533334 0l38.4-37.333333 1.066666-1.066667c53.333333-59.733333 45.866667-151.466667-17.066666-202.666666s-156.8-43.733333-210.133334 16L312.17777778 629.68888922c-5.333333 7.466667-4.266667 17.066667 3.2 23.466666l133.333333 109.866667c7.466667 5.333333 18.133333 5.333333 24.533334-1.066667L839.11111078 401.42222222c7.466667-6.4 6.4-18.133333 0-24.533333-7.466667-6.4-18.133333-6.4-25.6 0z" fill="" p-id="3910"></path><path d="M838.04444478 313.95555522c-3.2 0-5.333333-1.066667-7.466667-3.2-4.266667-4.266667-4.266667-10.666667 0-14.933333l17.066667-16c4.266667-4.266667 10.666667-4.266667 14.933333 0 4.266667 4.266667 4.266667 10.666667 0 14.933333l-17.066667 16c-2.133333 2.133333-4.266667 3.2-7.466666 3.2zM676.97777778 465.42222222c-3.2 0-5.333333-1.066667-7.466667-3.2-4.266667-4.266667-4.266667-10.666667 0-14.933333l109.866667-103.466667c4.266667-4.266667 10.666667-4.266667 14.933333 0 4.266667 4.266667 4.266667 10.666667 0 14.933333L684.44444478 462.22222222c-2.133333 2.133333-4.266667 3.2-7.466667 3.2z" fill="#FFFFFF" p-id="3911"></path></svg>