<?xml version="1.0" standalone="no"?><!DOCTYPE svg PUBLIC "-//W3C//DTD SVG 1.1//EN" "http://www.w3.org/Graphics/SVG/1.1/DTD/svg11.dtd"><svg t="1709567712033" class="icon" viewBox="0 0 1024 1024" version="1.1" xmlns="http://www.w3.org/2000/svg" p-id="51025" width="24" height="24" xmlns:xlink="http://www.w3.org/1999/xlink"><path d="M471.04 479.573333c-109.226667 0-197.973333-88.746667-197.973333-197.973333S361.813333 83.626667 471.04 83.626667s197.973333 88.746667 197.973333 197.973333S580.266667 479.573333 471.04 479.573333z m0-344.746666c-80.213333 0-146.773333 66.56-146.773333 146.773333s66.56 146.773333 146.773333 146.773333 146.773333-66.56 146.773333-146.773333-64.853333-146.773333-146.773333-146.773333z" fill="#1296db" p-id="51026"></path><path d="M512 892.586667H59.733333c-13.653333 0-25.6-11.946667-25.6-25.6 0-240.64 196.266667-436.906667 436.906667-436.906667 59.733333 0 116.053333 11.946667 170.666667 34.133333 13.653333 5.12 18.773333 20.48 13.653333 34.133334-5.12 13.653333-20.48 18.773333-34.133333 13.653333-47.786667-20.48-98.986667-30.72-150.186667-30.72-204.8 0-372.053333 160.426667-385.706667 360.106667h426.666667c13.653333 0 25.6 11.946667 25.6 25.6s-11.946667 25.6-25.6 25.6z" fill="#1296db" p-id="51027"></path><path d="M843.093333 940.373333c-10.24 0-20.48-6.826667-23.893333-17.066666-3.413333-10.24-13.653333-17.066667-23.893333-17.066667s-20.48 6.826667-23.893334 17.066667c-3.413333 13.653333-18.773333 20.48-32.426666 17.066666-32.426667-10.24-61.44-27.306667-85.333334-51.2-8.533333-10.24-10.24-23.893333-1.706666-34.133333 3.413333-3.413333 6.826667-8.533333 6.826666-17.066667 0-15.36-13.653333-27.306667-27.306666-25.6-13.653333 1.706667-25.6-6.826667-27.306667-20.48-5.12-13.653333-6.826667-27.306667-6.826667-40.96 0-20.48 3.413333-39.253333 8.533334-58.026666 3.413333-10.24 13.653333-18.773333 23.893333-18.773334 15.36 0 25.6-11.946667 25.6-25.6 0-3.413333-1.706667-8.533333-3.413333-11.946666-5.12-10.24-3.413333-22.186667 5.12-30.72 22.186667-20.48 51.2-37.546667 80.213333-46.08 11.946667-3.413333 23.893333 1.706667 29.013333 13.653333 5.12 8.533333 13.653333 13.653333 22.186667 13.653333s18.773333-5.12 22.186667-13.653333c5.12-10.24 18.773333-17.066667 29.013333-13.653333 30.72 8.533333 58.026667 23.893333 80.213333 46.08 8.533333 8.533333 10.24 20.48 5.12 30.72-1.706667 3.413333-3.413333 6.826667-3.413333 11.946666 0 13.653333 11.946667 25.6 25.6 25.6 11.946667 0 22.186667 6.826667 25.6 17.066667 5.12 18.773333 8.533333 39.253333 8.533333 58.026667 0 13.653333-1.706667 27.306667-3.413333 39.253333-3.413333 13.653333-15.36 22.186667-27.306667 20.48-13.653333-1.706667-27.306667 10.24-27.306666 25.6 0 6.826667 1.706667 11.946667 6.826666 17.066667 8.533333 10.24 8.533333 25.6-1.706666 34.133333-23.893333 23.893333-52.906667 42.666667-85.333334 51.2 5.12 3.413333 1.706667 3.413333 0 3.413333z m-139.946666-76.8c8.533333 6.826667 18.773333 13.653333 30.72 18.773334 13.653333-18.773333 35.84-29.013333 59.733333-29.013334s46.08 11.946667 59.733333 29.013334c10.24-5.12 20.48-11.946667 30.72-18.773334-3.413333-8.533333-5.12-18.773333-5.12-27.306666 0-35.84 25.6-66.56 59.733334-75.093334V750.933333c0-10.24-1.706667-18.773333-3.413334-29.013333-32.426667-8.533333-56.32-39.253333-56.32-73.386667 0-5.12 0-8.533333 1.706667-13.653333-10.24-6.826667-20.48-13.653333-30.72-17.066667-13.653333 15.36-34.133333 23.893333-54.613333 23.893334-20.48 0-40.96-8.533333-54.613334-23.893334-11.946667 5.12-22.186667 10.24-30.72 17.066667 0 5.12 1.706667 8.533333 1.706667 13.653333 0 35.84-23.893333 64.853333-56.32 73.386667-5.12 10.24-6.826667 20.48-6.826667 29.013333v10.24c34.133333 8.533333 59.733333 37.546667 59.733334 75.093334 0 10.24-1.706667 18.773333-5.12 27.306666z" fill="#1296db" p-id="51028" data-spm-anchor-id="a313x.search_index.0.i100.5a4d3a81ZpQ7dH"></path><path d="M793.6 836.266667c-47.786667 0-85.333333-37.546667-85.333333-85.333334s37.546667-85.333333 85.333333-85.333333 85.333333 37.546667 85.333333 85.333333-37.546667 85.333333-85.333333 85.333334z m0-119.466667c-18.773333 0-34.133333 15.36-34.133333 34.133333s15.36 34.133333 34.133333 34.133334 34.133333-15.36 34.133333-34.133334-15.36-34.133333-34.133333-34.133333z" fill="#1296db" p-id="51029"></path></svg>