<?xml version="1.0" standalone="no"?><!DOCTYPE svg PUBLIC "-//W3C//DTD SVG 1.1//EN" "http://www.w3.org/Graphics/SVG/1.1/DTD/svg11.dtd"><svg t="1709566028076" class="icon" viewBox="0 0 1024 1024" version="1.1" xmlns="http://www.w3.org/2000/svg" p-id="3064" width="24" height="24" xmlns:xlink="http://www.w3.org/1999/xlink"><path d="M978.488889 364.088889v455.111111H341.333333V364.088889h637.155556m22.755555-22.755556H318.577778v500.622223h682.666666V341.333333z" fill="#00B7EE" p-id="3065"></path><path d="M386.844444 409.6h546.133334v364.088889H386.844444zM614.4 841.955556h91.022222v136.533333h-91.022222z" fill="#00B7EE" p-id="3066"></path><path d="M386.844444 955.733333h546.133334v68.266667H386.844444z" fill="#00B7EE" p-id="3067"></path><path d="M277.617778 605.297778c-15.928889-27.306667-29.582222-54.613333-40.96-84.195556h40.96v-29.582222H227.555556c-11.377778-43.235556-20.48-86.471111-20.48-134.257778h72.817777v-31.857778H207.075556c2.275556-45.511111 9.102222-91.022222 20.48-134.257777h120.604444v106.951111h31.857778V191.146667h113.777778c9.102222 34.133333 15.928889 70.542222 20.48 106.951111h29.582222c-2.275556-36.408889-9.102222-72.817778-18.204445-106.951111H637.155556c18.204444 31.857778 29.582222 68.266667 36.408888 106.951111H705.422222C680.391111 131.982222 537.031111 0 364.088889 0 175.217778 0 22.755556 152.462222 22.755556 341.333333c0 159.288889 109.226667 291.271111 254.862222 329.955556v-65.991111zM614.4 161.564444h-100.124444C500.622222 120.604444 480.142222 81.92 457.386667 45.511111c63.715556 20.48 118.328889 61.44 157.013333 116.053333zM377.742222 31.857778c11.377778 0 22.755556 2.275556 34.133334 4.551111 29.582222 36.408889 52.337778 79.644444 70.542222 125.155555h-102.4V31.857778z m-29.582222 0v129.706666H236.657778c15.928889-45.511111 38.684444-88.746667 68.266666-125.155555 13.653333-2.275556 27.306667-4.551111 43.235556-4.551111z m-88.746667 18.204444C236.657778 84.195556 218.453333 120.604444 204.8 161.564444H111.502222c36.408889-50.062222 88.746667-91.022222 147.911111-111.502222zM93.297778 191.146667h102.4a659.911111 659.911111 0 0 0-20.48 134.257777H54.613333c2.275556-47.786667 15.928889-93.297778 38.684445-134.257777z m-38.684445 166.115555h120.604445c2.275556 45.511111 6.826667 91.022222 20.48 134.257778H93.297778c-22.755556-40.96-36.408889-86.471111-38.684445-134.257778z m56.888889 163.84H204.8c13.653333 40.96 31.857778 77.368889 54.613333 111.502222-59.164444-20.48-111.502222-59.164444-147.911111-111.502222z" fill="#00B7EE" p-id="3068"></path></svg>