<?xml version="1.0" standalone="no"?><!DOCTYPE svg PUBLIC "-//W3C//DTD SVG 1.1//EN" "http://www.w3.org/Graphics/SVG/1.1/DTD/svg11.dtd"><svg t="1709566219452" class="icon" viewBox="0 0 1024 1024" version="1.1" xmlns="http://www.w3.org/2000/svg" p-id="4201" width="24" height="24" xmlns:xlink="http://www.w3.org/1999/xlink"><path d="M917.333333 615.552C917.333333 839.936 735.018667 1024 512 1024 288.853333 1024 106.666667 839.936 106.666667 615.552 106.666667 485.290667 266.922667 250.24 490.368 22.144L511.957333 0l21.674667 22.186667C756.992 250.197333 917.333333 485.248 917.333333 615.509333z m-86.272 26.154667c4.821333-16-9.472-32.042667-30.762666-29.781334-14.250667 2.304-23.722667 9.130667-26.069334 18.304-33.152 98.602667-116.096 178.944-225.152 217.898667-11.861333 4.565333-18.986667 13.781333-16.554666 25.173333a28.074667 28.074667 0 0 0 37.845333 20.650667c125.610667-45.781333 222.762667-139.904 260.693333-252.16v-0.085333z m-166.656-170.837334a25.514667 25.514667 0 0 0-25.856-25.088h-83.754666l63.616-61.610666a24.490667 24.490667 0 0 0 0-35.413334 26.325333 26.325333 0 0 0-18.261334-7.296 26.282667 26.282667 0 0 0-18.304 7.296L514.346667 414.165333 446.848 348.757333a26.538667 26.538667 0 0 0-28.373333-5.504 24.533333 24.533333 0 0 0-15.744 23.253334c0 6.4 2.517333 12.842667 7.552 17.664l63.616 61.610666H388.522667a25.514667 25.514667 0 0 0-25.856 25.088c0 13.738667 11.648 25.002667 25.856 25.002667h100.352v58.410667H388.522667a25.514667 25.514667 0 0 0-25.856 25.002666c0 13.824 11.648 25.088 25.856 25.088h100.352v88.661334a25.6 25.6 0 0 0 25.941333 25.045333 25.557333 25.557333 0 0 0 25.813333-25.045333v-88.661334h97.92a25.514667 25.514667 0 0 0 25.856-25.088 25.514667 25.514667 0 0 0-25.856-25.002666h-97.92v-58.453334h97.92a25.514667 25.514667 0 0 0 25.856-24.96z" fill="#6EAEFF" p-id="4202"></path></svg>