<?xml version="1.0" standalone="no"?><!DOCTYPE svg PUBLIC "-//W3C//DTD SVG 1.1//EN" "http://www.w3.org/Graphics/SVG/1.1/DTD/svg11.dtd"><svg t="1709566005678" class="icon" viewBox="0 0 1024 1024" version="1.1" xmlns="http://www.w3.org/2000/svg" p-id="2853" width="24" height="24" xmlns:xlink="http://www.w3.org/1999/xlink"><path d="M600.240917 915.612201H242.325247a22.378321 22.378321 0 1 0 0 44.756642h357.91567a22.378321 22.378321 0 1 0 0-44.756642zM890.804233 479.094277h-149.899584v-61.19192a22.378321 22.378321 0 0 0-22.378321-22.378321H136.830645a22.378321 22.378321 0 0 0-22.378321 22.378321v140.99621c0 172.712685 140.513478 313.229359 313.226162 313.229359 67.262839 0 129.64081-21.316949 180.736912-57.544254 168.818857-4.498043 304.770354-143.224451 304.770353-313.111074a22.378321 22.378321 0 0 0-22.381518-22.378321z m-152.428335 119.708033h32.359053a196.267466 196.267466 0 0 1-43.845525 52.84161 311.176947 311.176947 0 0 0 11.486472-52.84161zM159.208966 558.898567v-118.617889h536.942238v118.617889c0 86.700009-41.348743 163.889232-105.325167 213.00645a22.343155 22.343155 0 0 0-7.631007 5.626549c-43.915857 31.329649-97.57907 49.836521-155.513347 49.836521-148.038987 0.003197-268.472717-120.43373-268.472717-268.46952z m507.016029 202.753982a314.894946 314.894946 0 0 0 27.60206-37.784196 241.020911 241.020911 0 0 0 131.888233-137.33256 22.244051 22.244051 0 0 0 2.368905-8.839436c0.025575-0.36125 0.047954-0.725697 0.054348-1.086947 0-0.063938 0.009591-0.124679 0.00959-0.188618 0-0.076726-0.009591-0.147058-0.012787-0.223783a22.371927 22.371927 0 0 0-14.756904-21.15071 22.298398 22.298398 0 0 0-11.297856-1.003828h-61.175935v-30.191552h126.517436c-9.55874 115.203597-92.102775 209.998164-201.19709 237.80163zM255.16401 295.07095c-17.57977 9.024857-44.142837 22.669239-44.142837 52.75849 0 12.359227 10.0127 22.311186 22.375124 22.311186 12.359227 0 22.375124-10.089426 22.375124-22.448653 1.40344-3.337567 13.39822-9.497999 19.843177-12.806793 17.57977-9.024857 44.146034-22.669239 44.146034-52.761687s-26.566264-43.73683-44.142837-52.764884c-6.444956-3.311992-18.442933-9.472424-19.823995-12.739659l-0.019182-0.354856c1.400244-3.337567 13.39822-9.497999 19.843177-12.80999 17.57977-9.028054 44.142837-22.672436 44.142837-52.764884 0-12.359227-10.0127-22.307989-22.375124-22.307989s-22.375124 10.089426-22.375124 22.448653c-1.400244 3.337567-13.39822 9.497999-19.843177 12.80999-17.57977 9.028054-44.142837 22.672436-44.142837 52.764884s26.566264 43.73683 44.142837 52.764884c6.444956 3.311992 18.442933 9.472424 19.823995 12.739658l0.019182 0.35166c-1.40344 3.337567-13.39822 9.501196-19.846374 12.80999zM430.69956 234.387337c-17.57977 9.024857-44.142837 22.669239-44.142837 52.75849 0 12.359227 10.0127 22.311186 22.375124 22.311187 12.359227 0 22.375124-10.089426 22.375124-22.448653 1.40344-3.337567 13.39822-9.497999 19.843177-12.806794 17.57977-9.024857 44.146034-22.669239 44.146034-52.761687s-26.566264-43.73683-44.142837-52.764884c-6.448153-3.311992-18.44613-9.472424-19.823995-12.739658l-0.019182-0.354857c1.400244-3.337567 13.39822-9.497999 19.846374-12.80999 17.57977-9.028054 44.142837-22.672436 44.142837-52.764884 0-12.359227-10.0127-22.307989-22.375124-22.307989s-22.375124 10.089426-22.375124 22.448653c-1.400244 3.337567-13.39822 9.497999-19.846374 12.80999-17.57977 9.028054-44.142837 22.672436-44.142837 52.764884s26.566264 43.73683 44.142837 52.764884c6.448153 3.311992 18.44613 9.472424 19.823995 12.739659l0.019182 0.351659c-1.40344 3.337567-13.401417 9.501196-19.846374 12.80999zM606.231913 295.07095c-17.57977 9.024857-44.142837 22.669239-44.142837 52.75849 0 12.359227 10.0127 22.311186 22.375124 22.311186 12.359227 0 22.375124-10.089426 22.375124-22.448653 1.40344-3.337567 13.39822-9.497999 19.843177-12.806793 17.57977-9.024857 44.146034-22.669239 44.146034-52.761687s-26.566264-43.73683-44.142837-52.764884c-6.448153-3.311992-18.44613-9.472424-19.823995-12.739659l-0.019182-0.354856c1.400244-3.337567 13.39822-9.497999 19.846374-12.80999 17.57977-9.028054 44.142837-22.672436 44.142837-52.764884 0-12.359227-10.0127-22.307989-22.375124-22.307989s-22.375124 10.089426-22.375124 22.448653c-1.400244 3.337567-13.39822 9.497999-19.846374 12.80999-17.57977 9.028054-44.142837 22.672436-44.142837 52.764884s26.566264 43.73683 44.142837 52.764884c6.448153 3.311992 18.44613 9.472424 19.823995 12.739658l0.019182 0.35166c-1.40344 3.337567-13.401417 9.501196-19.846374 12.80999z" fill="#009FE8" p-id="2854"></path></svg>