<?xml version="1.0" standalone="no"?><!DOCTYPE svg PUBLIC "-//W3C//DTD SVG 1.1//EN" "http://www.w3.org/Graphics/SVG/1.1/DTD/svg11.dtd"><svg t="1709566407475" class="icon" viewBox="0 0 1026 1024" version="1.1" xmlns="http://www.w3.org/2000/svg" p-id="5371" width="24.046875" height="24" xmlns:xlink="http://www.w3.org/1999/xlink"><path d="M1012.65374 419.811634a17.019391 17.019391 0 0 1 14.182825 17.019391v570.149584a17.019391 17.019391 0 0 1-5.67313 11.346261l-14.182826 5.67313H19.855956l-14.182826-5.67313a17.019391 17.019391 0 0 1-5.67313-11.346261V102.116343A17.019391 17.019391 0 0 1 17.019391 85.096953l621.207756-85.096953h14.182825a17.019391 17.019391 0 0 1 5.67313 14.182825v337.551247zM221.252078 950.249307h147.501385v-144.664819H221.252078z m439.66759 0h147.501385v-144.664819h-147.501385zM221.252078 680.775623h147.501385v-147.501385H221.252078z m0-269.473684h147.501385V263.800554H221.252078zM660.919668 680.775623h147.501385v-147.501385h-147.501385z" fill="#f08f72" p-id="5372"></path></svg>