<?xml version="1.0" standalone="no"?><!DOCTYPE svg PUBLIC "-//W3C//DTD SVG 1.1//EN" "http://www.w3.org/Graphics/SVG/1.1/DTD/svg11.dtd"><svg t="1709566672265" class="icon" viewBox="0 0 1024 1024" version="1.1" xmlns="http://www.w3.org/2000/svg" p-id="7171" width="24" height="24" xmlns:xlink="http://www.w3.org/1999/xlink"><path d="M505.2 795.27a270 270 0 1 1 190.94-79.09 268.29 268.29 0 0 1-190.94 79.09z m0-522.08c-139 0-252 113.07-252 252s113.06 252 252 252 252-113.07 252-252-113.03-252-252-252zM127.67 857.29h-16c-11.78 0-21-11.42-21-26V558.86a30.39 30.39 0 0 1 4.6-16.36v-29.72H65.08l0.14-155.29c0.1-84.49 59.83-151.63 62.37-154.49l15.68-17.38v355.7a29.62 29.62 0 0 1 5.4 17.54v272.42c0 14.59-9.22 26.01-21 26.01z m-15.93-18h15.86c0.88-0.35 3.07-3.22 3.07-8V558.86c0-3.61-1.28-6.44-2.56-7.63l-2.84-2.66V235.8c-17.08 25.14-42 70.56-42 121.71l-0.17 137.27h30.17v54.16L111 551.5a11.33 11.33 0 0 0-2.3 7.36v272.42c-0.03 4.79 2.16 7.66 3.04 8.01z" fill="#FF0000" p-id="7172"></path><path d="M505.2 700.24c-96.5 0-175-78.51-175-175s78.51-175 175-175 175 78.51 175 175-78.5 175-175 175z m0-332c-86.58 0-157 70.44-157 157s70.43 157 157 157 157-70.43 157-157-70.43-157.02-157-157.02z" fill="#FF0000" p-id="7173"></path><path d="M846.52 187.67l18 0 0 134.08-18 0 0-134.08Z" fill="#FF0000" p-id="7174"></path><path d="M878.52 188.62l18 0 0 134.08-18 0 0-134.08Z" fill="#FF0000" p-id="7175"></path><path d="M910.52 188.62l18 0 0 134.08-18 0 0-134.08Z" fill="#FF0000" p-id="7176"></path><path d="M942.52 187.67l18 0 0 134.08-18 0 0-134.08Z" fill="#FF0000" p-id="7177"></path><path d="M911.67 857.29h-16c-0.27 0-0.77 0-1.4-0.06-11.2-0.88-19.6-12.06-19.6-26.16V555.21a30.42 30.42 0 0 1 5.07-17.21V400.52c-19-6.57-32.91-29.84-32.91-57.2v-38.53h113.83v38.53c0 27.36-13.91 50.64-32.92 57.2v137.69a30.54 30.54 0 0 1 4.93 17v275.86c0 13.93-8.32 25.13-19.39 26.14-0.53 0.05-1.07 0.08-1.61 0.08z m-15.8-18h15.71c0.88-0.37 3.09-3.35 3.09-8.22V555.21a11.68 11.68 0 0 0-2.46-7.71l-2.47-2.6V385l8.28-0.66c13.59-1.09 24.64-19.48 24.64-41v-20.55h-77.83v20.53c0 21.52 11 39.91 24.63 41l8.28 0.66v159.86l-2.57 2.62c-1.15 1.18-2.5 3.92-2.5 7.75v275.86c0 4.85 2.2 7.84 3.09 8.22z" fill="#FF0000" p-id="7178"></path><path d="M879.67 396.5h13v7.33h-13z" fill="#FF0000" p-id="7179"></path></svg>