<?xml version="1.0" standalone="no"?><!DOCTYPE svg PUBLIC "-//W3C//DTD SVG 1.1//EN" "http://www.w3.org/Graphics/SVG/1.1/DTD/svg11.dtd"><svg t="1709566433662" class="icon" viewBox="0 0 1024 1024" version="1.1" xmlns="http://www.w3.org/2000/svg" p-id="5566" width="24" height="24" xmlns:xlink="http://www.w3.org/1999/xlink"><path d="M614.493091 118.853818c104.471273 42.053818 120.157091 80.058182 85.178182 233.448727-3.607273 15.941818 13.963636 10.658909 13.963636 30.673455 0 20.037818-0.325818 11.217455-4.002909 29.719273-2.466909 12.334545-8.96 24.645818-19.502545 36.933818a292.398545 292.398545 0 0 1-28.392728 66.141091c-40.029091 3.118545-79.825455 21.294545-110.452363 51.618909-61.858909 61.486545-62.603636 182.341818-1.489455 244.689454l1.489455 1.489455 116.875636 116.596364c-50.478545 1.256727-113.105455 0.581818-185.716364 0.442181-193.954909-0.395636-385.559273 3.84-389.352727-36.235636 0-19.269818 16.570182-202.705455 250.298182-245.085091 22.993455-11.566545 42.146909-19.269818 42.146909-30.836363v-40.005819s-56.971636-60.974545-82.455273-128.814545c-3.118545-8.308364-23.738182-17.780364-25.949091-46.545455-2.234182-28.741818-1.861818-5.259636-1.861818-23.435636 0-12.125091 3.886545-21.248 11.706182-27.345455-44.823273-174.592 20.340364-268.311273 195.490909-281.134545 65.605818-4.794182 116.968727 1.28 132.026182 47.709091z m157.253818 484.980364a124.043636 124.043636 0 0 1 169.588364 3.677091l1.256727 1.256727a120.226909 120.226909 0 0 1-1.256727 170.565818l-142.056728 140.078546-0.512 0.488727a38.679273 38.679273 0 0 1-54.528-0.488727l-142.08-140.171637-1.163636-1.163636a120.273455 120.273455 0 0 1 1.163636-170.565818 124.066909 124.066909 0 0 1 169.588364-3.677091z m0.046546 40.029091a20.573091 20.573091 0 0 0-20.573091 20.573091v51.2h-51.479273a20.503273 20.503273 0 0 0 0 41.006545h51.479273v51.2a20.573091 20.573091 0 0 0 41.146181 0l-0.023272-51.2h51.502545a20.503273 20.503273 0 0 0 0-41.006545h-51.502545v-51.2a20.573091 20.573091 0 0 0-20.549818-20.549819z" fill="#1677FF" p-id="5567"></path></svg>