<?xml version="1.0" standalone="no"?><!DOCTYPE svg PUBLIC "-//W3C//DTD SVG 1.1//EN" "http://www.w3.org/Graphics/SVG/1.1/DTD/svg11.dtd"><svg t="1709568288852" class="icon" viewBox="0 0 1024 1024" version="1.1" xmlns="http://www.w3.org/2000/svg" p-id="4547" width="24" height="24" xmlns:xlink="http://www.w3.org/1999/xlink"><path d="M511.999674 511.999674m-511.999674 0a511.999674 511.999674 0 1 0 1023.999348 0 511.999674 511.999674 0 1 0-1023.999348 0Z" fill="#A18AFE" p-id="4548"></path><path d="M466.087267 2.029381A518.050579 518.050579 0 0 1 511.999674 0c282.763456 0 511.999674 229.226909 511.999674 511.999674 0 8.685376-0.195491 17.314898-0.633017 25.897875-15.127263 1.349817-30.440708 2.029381-45.912408 2.02938-282.763456 0-511.999674-229.226909-511.999674-511.999674 0-8.685376 0.2048-17.314898 0.633018-25.897874z" fill="#FFFFFF" opacity=".1" p-id="4549"></path><path d="M347.145088 996.881984l18.711261-559.913535 518.888397 17.342826a27.927255 27.927255 0 0 1 26.977728 28.848854l-12.139046 363.39875c-82.757766 95.799794-200.452527 160.591025-333.29317 174.591889l-142.726891-4.756942a509.458294 509.458294 0 0 1-76.418279-19.511842z" fill="#C0B6FF" p-id="4550"></path><path d="M186.1817 906.974841V372.363399a46.545425 46.545425 0 0 1 46.545425-46.545425h558.545099a46.545425 46.545425 0 0 1 46.545425 46.545425v534.611442A509.90513 509.90513 0 0 1 511.999674 1023.999348a509.90513 509.90513 0 0 1-325.817974-117.024507z m329.923281-287.40869a187.391881 187.391881 0 0 1 21.727404-22.043913 134.041515 134.041515 0 0 1 22.490749-14.596645c8.378176-4.365961 17.128716-6.255705 26.223693-5.650615 12.837228 0.986763 23.551985 3.909816 32.125652 8.778467 8.582976 4.868651 15.397227 11.021957 20.479987 18.469225 5.064142 7.447268 8.517813 15.890608 10.388939 25.320711a113.952509 113.952509 0 0 1 1.861817 29.044345 111.988292 111.988292 0 0 1-5.417888 28.429946c-3.006834 9.029812-6.730468 17.473153-11.18952 25.320711a158.775754 158.775754 0 0 1-14.74559 21.736713 222.896731 222.896731 0 0 1-16.123336 18.01308 303.941625 303.941625 0 0 1-25.907183 22.78864 289.186725 289.186725 0 0 1-25.748929 18.171334c-2.54138 1.573235-5.017597 3.044071-7.437959 4.412506-5.324797 3.044071-10.286539 5.585451-14.903845 7.652068a92.132014 92.132014 0 0 1-4.896579 1.992144 60.192544 60.192544 0 0 1-3.667779 1.238108 25.879256 25.879256 0 0 1-7.112141 1.2288c-4.142543 0.195491-9.411485-1.191563-15.834754-4.170471l-3.909816-1.908362a178.129341 178.129341 0 0 1-17.18457-10.156212 245.201299 245.201299 0 0 1-10.146903-7.074904c-4.542833-3.351271-9.234612-6.981814-14.056718-10.947484a508.257422 508.257422 0 0 1-25.13453-22.034604l-2.708944-2.532071-3.220943-3.090617c-2.969598-2.904435-6.050905-6.022978-9.25323-9.35563l-2.187635-2.290035a187.457044 187.457044 0 0 1-17.538317-21.597077 143.210963 143.210963 0 0 1-14.112572-25.460348 79.713695 79.713695 0 0 1-4.980361-16.076789 86.239363 86.239363 0 0 1-1.52669-13.116501c-0.418909-10.314466 0.70749-19.995915 3.397816-29.035036 2.699635-9.029812 6.730468-17.128716 12.101811-24.268785a72.098863 72.098863 0 0 1 19.865587-18.022388c7.847559-4.859342 16.756353-8.285086 26.689147-10.267921a44.674299 44.674299 0 0 1 14.894536-0.446836 76.50206 76.50206 0 0 1 28.234455 9.97003c4.338034 2.578617 8.489886 5.268942 12.418319 8.043049 9.085667 6.553596 17.780352 14.391845 26.04682 23.533367z" fill="#F9F8FF" p-id="4551"></path><path d="M512.399965 611.95132a194.392313 194.392313 0 0 0-22.434895-22.918968 138.547112 138.547112 0 0 0-23.254094-15.173808 50.213204 50.213204 0 0 0-27.089438-5.892651c-13.256137 1.023999-24.31533 4.077379-33.186888 9.132212-8.871558 5.064142-15.927844 11.468793-21.168859 19.204643a70.749046 70.749046 0 0 0-10.742684 26.335401c-1.917672 9.802466-2.559998 19.874896-1.917671 30.198672 0.642327 10.323775 2.513453 20.182096 5.613378 29.574963a147.82827 147.82827 0 0 0 11.543265 26.326092 166.455749 166.455749 0 0 0 15.229663 22.621077 234.979923 234.979923 0 0 0 16.663262 18.729879 316.695071 316.695071 0 0 0 26.782238 23.70093 298.449265 298.449265 0 0 0 26.614674 18.897443 192.660823 192.660823 0 0 0 23.086531 12.539337c6.944577 3.099925 12.343847 4.645233 16.188498 4.645234 4.282179 0.2048 9.727994-1.238108 16.356063-4.338034s13.889155-7.279704 21.801877-12.539338a307.721113 307.721113 0 0 0 25.004202-18.739188 525.851593 525.851593 0 0 0 25.972347-22.928276 381.020848 381.020848 0 0 0 17.966534-17.966534 194.904312 194.904312 0 0 0 18.10617-22.453513 148.889505 148.889505 0 0 0 14.587337-26.484347 85.1502 85.1502 0 0 0 6.739777-30.347617c0.428218-10.742684-0.744727-20.805805-3.537452-30.198671a79.304095 79.304095 0 0 0-12.492792-25.246239 74.528534 74.528534 0 0 0-20.526533-18.739188c-8.117522-5.064142-17.314898-8.620213-27.573509-10.68683a45.363171 45.363171 0 0 0-15.387918-0.465454 76.427588 76.427588 0 0 0-15.080717 3.723634 79.527513 79.527513 0 0 0-14.103264 6.655996c-4.486979 2.681016-8.759849 5.473742-12.81861 8.359558a172.683526 172.683526 0 0 0-26.940492 24.473585z" fill="#C0B6FF" p-id="4552"></path></svg>