<?xml version="1.0" standalone="no"?><!DOCTYPE svg PUBLIC "-//W3C//DTD SVG 1.1//EN" "http://www.w3.org/Graphics/SVG/1.1/DTD/svg11.dtd"><svg t="1709566738965" class="icon" viewBox="0 0 1024 1024" version="1.1" xmlns="http://www.w3.org/2000/svg" p-id="8839" width="24" height="24" xmlns:xlink="http://www.w3.org/1999/xlink"><path d="M369.322667 564.394667c-5.461333 0-10.922667-2.048-15.018667-6.314667-8.362667-8.362667-8.362667-21.845333 0-30.037333 35.157333-35.157333 35.157333-92.672 0-127.829334l-13.994667-13.994666a131.652267 131.652267 0 0 1-38.912-96.938667c0.853333-36.693333 16.213333-70.485333 43.349334-95.232l38.912-35.498667c8.704-8.021333 22.186667-7.168 30.037333 1.365334 8.021333 8.704 7.168 22.186667-1.365333 30.037333l-38.912 35.498667A89.053867 89.053867 0 0 0 344.064 290.133333c-0.512 24.917333 8.874667 48.298667 26.453333 65.877334l13.994667 13.994666a133.085867 133.085867 0 0 1 0 188.074667c-4.266667 4.266667-9.728 6.314667-15.189333 6.314667z m-152.576 0c-5.461333 0-10.922667-2.048-15.018667-6.314667-8.362667-8.362667-8.362667-21.845333 0-30.037333 35.157333-35.157333 35.157333-92.672 0-127.829334l-13.994667-13.994666a131.652267 131.652267 0 0 1-38.912-96.938667c0.853333-36.693333 16.213333-70.485333 43.349334-95.232 8.704-8.021333 22.186667-7.168 30.037333 1.365333 8.021333 8.704 7.168 22.186667-1.365333 30.037334A89.053867 89.053867 0 0 0 191.488 290.133333c-0.512 24.917333 8.874667 48.298667 26.453333 65.877334l13.994667 13.994666a133.085867 133.085867 0 0 1 0 188.074667c-4.266667 4.266667-9.557333 6.314667-15.189333 6.314667z m300.373333 0c-5.461333 0-10.922667-2.048-15.018667-6.314667-8.362667-8.362667-8.362667-21.845333 0-30.037333 17.066667-17.066667 26.453333-39.765333 26.453334-64s-9.386667-46.933333-26.453334-64l-13.994666-13.994667a131.652267 131.652267 0 0 1-38.912-96.938667c0.853333-36.693333 16.213333-70.485333 43.349333-95.232l74.069333-67.413333c8.704-8.021333 22.186667-7.168 30.037334 1.365333 8.021333 8.704 7.168 22.186667-1.365334 30.037334l-74.069333 67.242666a89.053867 89.053867 0 0 0-29.354667 64.682667c-0.512 24.917333 8.874667 48.298667 26.453334 65.877333l13.994666 13.994667c25.088 25.088 38.912 58.538667 38.912 94.037333s-13.824 68.949333-38.912 94.037334c-4.096 4.608-9.557333 6.656-15.189333 6.656z" fill="#00C1F1" p-id="8840"></path><path d="M75.264 232.789333c-10.24 0-19.285333-7.338667-20.992-17.92-1.877333-11.605333 5.973333-22.528 17.578667-24.405333l927.402666-149.674667a21.248 21.248 0 1 1 6.826667 41.984L78.848 232.448c-1.365333 0.341333-2.389333 0.341333-3.584 0.341333z m406.357333 91.648c-11.434667 0-20.992-9.216-21.333333-20.821333-0.341333-11.776 8.874667-21.674667 20.821333-21.845333l514.730667-13.482667h0.512c11.434667 0 20.992 9.216 21.333333 20.821333 0.341333 11.776-8.874667 21.674667-20.821333 21.845334l-514.730667 13.482666h-0.512z m-389.632 10.24c-11.434667 0-20.992-9.216-21.333333-20.821333-0.341333-11.776 8.874667-21.504 20.821333-21.845333L165.717333 290.133333h0.512c11.434667 0 20.992 9.216 21.333334 20.821334 0.341333 11.776-8.874667 21.674667-20.821334 21.845333l-74.410666 2.048h-0.341334v-0.170667zM916.650667 685.568H25.6a21.333333 21.333333 0 0 1 0-42.666667h891.221333c11.776 0 21.333333 9.557333 21.333334 21.333334s-9.728 21.333333-21.504 21.333333z" fill="#00C1F1" p-id="8841"></path><path d="M560.64 983.552H382.634667c-100.693333 0-195.925333-38.741333-268.117334-108.885333C42.154667 804.010667 1.536 709.802667 0 609.450667v-60.074667c0-11.776 9.557333-21.333333 21.333333-21.333333h900.608c11.776 0 21.333333 9.557333 21.333334 21.333333v60.074667c-1.536 100.352-42.154667 194.56-114.517334 265.216a382.8736 382.8736 0 0 1-268.117333 108.885333zM42.666667 570.709333v38.058667c2.730667 183.296 155.306667 332.288 339.968 332.288h178.005333c184.661333 0 337.237333-148.992 339.968-332.288v-38.058667H42.666667z" fill="#00C1F1" p-id="8842"></path></svg>