<?xml version="1.0" standalone="no"?><!DOCTYPE svg PUBLIC "-//W3C//DTD SVG 1.1//EN" "http://www.w3.org/Graphics/SVG/1.1/DTD/svg11.dtd"><svg t="1709568593828" class="icon" viewBox="0 0 1024 1024" version="1.1" xmlns="http://www.w3.org/2000/svg" p-id="10133" width="24" height="24" xmlns:xlink="http://www.w3.org/1999/xlink"><path d="M511.39 952.86c-228.15 0-413.09-189.8-413.09-423.94S283.25 105 511.39 105s413.09 189.8 413.09 423.94-184.94 423.92-413.09 423.92z m0-30.83c211.55 0 383.05-176 383.05-393.11s-171.49-393.1-383.05-393.1-383.05 176-383.05 393.11S299.84 922 511.39 922zM140.8 338.29c-41.46-8.39-73.28-43.93-74.8-87.58-1.79-51.18 38.74-94.14 90.53-96a93.93 93.93 0 0 1 86.14 49.15A427.76 427.76 0 0 0 140.8 338.29z" fill="#1D1E19" p-id="10134" data-spm-anchor-id="a313x.search_index.0.i18.51fc3a81GyxaYN" class="selected"></path><path d="M780.12 203.9a93.93 93.93 0 0 1 86.14-49.15c51.79 1.81 92.32 44.77 90.53 96-1.52 43.66-33.34 79.2-74.8 87.58A427.76 427.76 0 0 0 780.12 203.9z" fill="#1D1E19" p-id="10135"></path><path d="M333.462987 645.089467a72.9 141.31 20 1 0 96.661733-265.575928 72.9 141.31 20 1 0-96.661733 265.575928Z" fill="#1D1E19" p-id="10136"></path><path d="M572.486951 537.236347a141.31 72.9 70 1 0 137.007184-49.866537 141.31 72.9 70 1 0-137.007184 49.866537Z" fill="#1D1E19" p-id="10137"></path><path d="M389.89 445.8a24.3 24.94 0 1 0 48.6 0 24.3 24.94 0 1 0-48.6 0Z" fill="#FFFFFF" p-id="10138"></path><path d="M600.49 445.8a24.3 24.94 0 1 0 48.6 0 24.3 24.94 0 1 0-48.6 0Z" fill="#FFFFFF" p-id="10139"></path><path d="M506.52 722.9l-84.14-77.6a14.37 14.37 0 0 1 9.74-24.93h158.54a14.37 14.37 0 0 1 9.74 24.93l-84.14 77.6a7.19 7.19 0 0 1-9.74 0z" fill="#1D1E19" p-id="10140"></path></svg>